<svg width="71" height="97" viewBox="0 0 71 97" fill="none" xmlns="http://www.w3.org/2000/svg">
<path d="M64.2399 25.8799H41.36C41.27 26.1399 41.15 26.4199 41.03 26.6799C38.9 31.4999 36.51 32.6799 34.45 33.8499C32.48 34.9699 30.8 36.6599 30.54 37.3399C30.77 36.7099 31.92 34.1299 35.76 31.6699C37.52 30.5499 38.97 28.2999 40.07 25.8899H33.98C30.16 30.4299 29.55 32.1899 28.34 35.3499C27.82 32.1699 29.65 28.7899 32.02 25.8899H27.64C27.71 26.8299 27.83 27.7599 28.06 28.6499C27.66 27.7099 27.38 26.7999 27.19 25.8899H25.72C26.96 28.8399 27.62 31.8199 27.34 35.0699C26.87 31.7899 25.23 28.5399 23.64 25.8899H17.62C18.79 28.2099 21.67 33.2699 26.38 37.6899C33.34 44.2499 32.49 50.9199 31.34 55.8899C30.92 49.9199 31.11 47.0799 28.25 42.9399C25.51 38.9799 18.2 33.5499 17.15 25.8899H14.32C16.57 33.4299 22.98 38.6099 23.48 38.9799C17.67 36.9699 13.6 31.2499 11.89 25.8899H5.9C2.64 25.8899 0 28.5399 0 31.7899V90.1499C0 93.3999 2.65 96.0499 5.9 96.0499H64.2599C67.5199 96.0499 70.1599 93.3999 70.1599 90.1499V31.7899C70.1599 28.5399 67.5099 25.8899 64.2599 25.8899M29.16 38.5499C28.67 32.2299 34.87 28.4599 35.62 28.0399C29.74 33.5399 29.51 38.5499 29.51 38.5499H29.16ZM16.7 64.4899C15.18 62.1999 14.41 59.4299 14.41 56.1799C14.41 51.0999 16.19 47.0499 19.77 44.0299C21.41 42.6699 23.28 41.5999 25.44 40.8699C26.24 41.7399 26.92 42.5299 27.43 43.2799C28.44 44.7299 29.05 46.0199 29.42 47.3799C27.78 47.7099 26.4 48.2699 25.27 49.0199C23.23 50.3999 22.2 52.3699 22.2 54.9199C22.2 56.4899 22.88 58.1999 24.19 60.0699C25.52 61.9199 26.2 63.2499 26.2 64.0799C26.2 65.1599 25.8 66.0699 25.03 66.8199C24.26 67.5699 23.27 67.9199 22.05 67.9199C20.01 67.9199 18.23 66.7699 16.69 64.4999M53.1099 79.4599C49.1299 83.4399 43.53 85.4099 36.37 85.4099H26.79C25.38 85.4099 24.38 85.1499 23.77 84.6399C23.16 84.1299 22.86 83.2599 22.86 82.0599C22.86 80.5399 23.84 79.4799 25.81 78.8499C26.12 78.7599 26.35 78.6899 26.49 78.6399C26.98 78.4799 27.33 78.1299 27.54 77.5899C27.73 77.0499 27.82 76.1399 27.82 74.8299V59.8899C27.82 59.0699 27.77 58.4099 27.68 57.8999C27.56 57.3799 27.4 56.9599 27.14 56.6099C27.02 56.4399 26.76 56.2099 26.42 55.9299C25.51 55.2299 25.06 54.4099 25.06 53.4899C25.06 52.4799 25.34 51.7799 25.88 51.3599C26.44 50.9099 27.43 50.7099 28.83 50.7099H30C30.07 51.5799 30.14 52.5399 30.21 53.5899C30.26 54.2699 30.3 54.9699 30.35 55.7399C30.4 56.2299 30.77 56.6299 31.29 56.6499H31.36C31.83 56.6499 32.23 56.3499 32.34 55.8799C32.72 54.2399 33.02 52.5099 33.09 50.6999H33.25C34.58 50.6999 35.52 50.9099 36.08 51.3099C36.64 51.7299 36.92 52.3899 36.92 53.3499C36.92 53.8899 36.66 54.6599 36.17 55.6399C35.68 56.6499 35.42 57.6799 35.42 58.6799V78.4899H38C41.93 78.4899 45.07 77.1599 47.4599 74.4399C49.8299 71.7199 50.9999 68.1399 50.9999 63.6399C50.9999 58.5399 49.4799 54.4599 46.3899 51.4599C43.32 48.4399 39.15 46.9399 33.93 46.9399C33.58 46.9399 33.23 46.9399 32.88 46.9599C32.5 44.6199 31.57 42.2099 29.81 39.7899C31.21 39.5799 32.74 39.4899 34.33 39.4899C41.49 39.4899 47.4199 41.6899 52.0799 46.1399C56.7599 50.5899 59.0999 56.1599 59.0999 62.9099C59.0999 69.6599 57.0899 75.4899 53.1099 79.4399" fill="white"/>
<path d="M25.7097 25.8799H23.6297C22.7197 24.3399 21.7997 22.9999 21.1197 21.9699C19.3197 19.1599 17.2297 15.9499 16.9297 13.2599C16.8097 12.2999 16.3197 11.3399 15.8297 12.2099C13.0897 17.1999 13.0897 21.8799 14.3097 25.8899H11.8697C11.2397 23.8099 10.9297 21.7899 11.0297 20.0599C11.4097 12.5899 15.9697 7.22986 21.0497 1.85986C16.5497 8.06986 17.9797 13.0499 21.6397 18.5799C23.2797 21.0899 24.7097 23.4799 25.7097 25.8899" fill="white"/>
<path d="M30.5098 25.1598C30.5098 25.1598 32.8598 21.2998 32.3998 16.0598C31.9398 10.8198 32.7398 4.52982 34.4498 3.06982C30.5498 7.46982 30.6798 10.1898 30.7598 13.2498C30.8398 16.3098 31.7698 21.4598 30.5098 25.1498" fill="white"/>
<path d="M41.3598 25.8799H40.0698C42.0398 21.6199 42.9998 16.8599 42.9998 16.8599C42.9998 16.8599 43.1598 21.3099 41.3598 25.8799Z" fill="white"/>
<path d="M40.3698 18.27C40.1398 18.55 38.1699 20.89 34.3299 25.46L33.9798 25.88H32.0098C35.3998 21.73 39.9198 18.57 40.3698 18.27Z" fill="white"/>
<path d="M35.1899 0.00999832C35.1899 0.00999832 28.3999 4.98 25.3199 11.64C22.2399 18.3 26.3299 24.4 26.3299 24.4C26.3299 24.4 24.5699 19.68 26.1999 14.59C27.8399 9.5 35.1899 0 35.1899 0" fill="white"/>
<path d="M27.6299 25.8802H27.1799C26.4499 22.2702 27.2498 18.8102 28.6998 15.7202C28.5598 16.2602 27.2998 21.2202 27.6198 25.8802" fill="white"/>
<path d="M17.61 25.8801H17.14C17.07 25.4601 17.02 25.0401 17 24.6201C17 24.6201 17.19 25.0901 17.61 25.8801Z" fill="white"/>
</svg>
