<svg width="180" height="159" viewBox="0 0 180 159" fill="none" xmlns="http://www.w3.org/2000/svg">
<path d="M15.21 143.99H8.58C7.6 143.99 6.91001 143.81 6.49001 143.45C6.07001 143.09 5.87 142.49 5.87 141.66C5.87 140.62 6.55 139.88 7.91 139.45C8.12 139.39 8.27 139.34 8.37 139.31C8.72 139.2 8.97001 138.95 9.10001 138.58C9.24001 138.2 9.3 137.57 9.3 136.67V126.32C9.3 125.76 9.26 125.3 9.19 124.95C9.12 124.6 8.99 124.3 8.82 124.06C8.74 123.95 8.57 123.79 8.32 123.58C7.7 123.1 7.38 122.54 7.38 121.9C7.38 121.21 7.57001 120.72 7.96001 120.42C8.34001 120.12 9.03 119.97 10 119.97H13.05C13.98 119.97 14.64 120.11 15.02 120.39C15.4 120.67 15.6 121.14 15.6 121.79C15.6 122.16 15.43 122.69 15.08 123.39C14.74 124.09 14.56 124.79 14.56 125.49V139.21H16.34C19.06 139.21 21.25 138.27 22.89 136.4C24.53 134.53 25.35 132.03 25.35 128.93C25.35 125.39 24.28 122.58 22.15 120.5C20.02 118.42 17.14 117.38 13.52 117.38C10.93 117.38 8.92 117.86 7.51 118.81C6.1 119.76 5.4 121.12 5.4 122.88C5.4 123.97 5.86001 125.16 6.78001 126.45C7.70001 127.74 8.16 128.67 8.16 129.22C8.16 129.97 7.89 130.61 7.36 131.12C6.82 131.63 6.14001 131.89 5.31001 131.89C3.90001 131.89 2.66001 131.1 1.60001 129.51C0.530006 127.92 0 126.01 0 123.77C0 120.24 1.24 117.44 3.72 115.35C6.2 113.26 9.56 112.21 13.79 112.21C18.75 112.21 22.86 113.75 26.09 116.82C29.33 119.89 30.94 123.76 30.94 128.42C30.94 133.08 29.56 137.12 26.8 139.87C24.04 142.62 20.17 143.99 15.21 143.99Z" fill="white"/>
<path d="M40.2701 114.51V123.02C40.2701 123.23 40.2901 123.37 40.3401 123.43C40.3901 123.49 40.4801 123.53 40.6001 123.53C40.7001 123.53 40.8901 123.37 41.1801 123.05C42.5301 121.59 44.0601 120.87 45.7701 120.87C47.4801 120.87 48.6201 121.32 49.3701 122.24C50.1201 123.15 50.5001 124.62 50.5001 126.63V132.23H50.7901C51.3301 132.23 51.7901 132.41 52.1401 132.77C52.4901 133.13 52.6701 133.59 52.6701 134.15C52.6701 134.84 52.2101 135.61 51.3001 136.46L51.1801 136.56L47.9801 139.52C47.6301 139.84 47.3501 140.04 47.1401 140.13C46.9301 140.22 46.6901 140.26 46.4201 140.26C45.8901 140.26 45.4101 140.04 44.9901 139.6C44.5601 139.16 44.3501 138.66 44.3501 138.1C44.3501 137.78 44.5901 137.23 45.0801 136.44C45.5701 135.66 45.8101 134.72 45.8101 133.63V129.47C45.8101 128.22 45.6401 127.38 45.3101 126.94C44.9701 126.5 44.3701 126.28 43.5101 126.28C42.3601 126.28 41.5301 126.72 41.0201 127.61C40.5201 128.5 40.2601 129.96 40.2601 132C40.2601 133.01 40.3201 133.75 40.4301 134.21C40.5401 134.68 40.7301 134.99 41.0101 135.15C41.1401 135.23 41.3501 135.34 41.6301 135.49C42.5401 135.94 43.0001 136.53 43.0001 137.27C43.0001 137.96 42.8201 138.46 42.4701 138.77C42.1201 139.08 41.5401 139.24 40.7401 139.24H35.3301C34.4201 139.24 33.7401 139.09 33.2901 138.8C32.8401 138.5 32.6201 138.04 32.6201 137.42C32.6201 136.56 33.1401 135.9 34.1801 135.45C34.5001 135.31 34.7401 135.19 34.9001 135.11C35.1401 134.97 35.3101 134.73 35.4201 134.42C35.5201 134.1 35.5801 133.58 35.5801 132.86V118.63H34.9601C34.2901 118.63 33.7801 118.49 33.4501 118.2C33.1101 117.91 32.9401 117.49 32.9401 116.95C32.9401 116.6 33.0101 116.28 33.1601 116.01C33.3001 115.74 33.5601 115.47 33.9301 115.19L36.7601 112.96C37.1801 112.65 37.5101 112.46 37.7601 112.37C38.0101 112.28 38.2901 112.24 38.5901 112.24C39.2001 112.24 39.6301 112.4 39.8901 112.72C40.1501 113.04 40.2701 113.65 40.2701 114.54" fill="white"/>
<path d="M61.8 123.42V132.81C61.8 133.58 61.84 134.09 61.91 134.36C61.98 134.62 62.1 134.83 62.26 134.97C62.37 135.07 62.61 135.2 62.98 135.38C63.97 135.81 64.47 136.48 64.47 137.37C64.47 138.01 64.27 138.48 63.88 138.76C63.49 139.05 62.87 139.19 62.02 139.19H56.68C55.82 139.19 55.19 139.04 54.81 138.74C54.42 138.44 54.23 137.97 54.23 137.31C54.23 136.48 54.72 135.82 55.69 135.32C55.96 135.19 56.16 135.09 56.29 135.01C56.51 134.86 56.67 134.65 56.75 134.37C56.83 134.09 56.88 133.56 56.9 132.8V127.49H56.49C55.83 127.49 55.33 127.35 54.99 127.06C54.65 126.77 54.47 126.36 54.47 125.81C54.47 125.44 54.55 125.12 54.7 124.84C54.85 124.56 55.1 124.28 55.46 123.99L58.27 121.83C58.61 121.56 58.91 121.36 59.2 121.25C59.48 121.14 59.8 121.08 60.15 121.08C60.74 121.08 61.17 121.26 61.42 121.61C61.67 121.96 61.8 122.56 61.8 123.41M59.3 112.2C60.26 112.2 61.07 112.57 61.71 113.3C62.36 114.04 62.68 114.94 62.68 116.02C62.68 117.1 62.36 118.06 61.73 118.76C61.1 119.47 60.28 119.82 59.29 119.82C58.3 119.82 57.48 119.46 56.83 118.74C56.18 118.02 55.86 117.12 55.86 116.03C55.86 114.94 56.18 114.01 56.83 113.29C57.48 112.57 58.3 112.21 59.29 112.21" fill="white"/>
<path d="M73.7702 128.97V131.87C73.7702 132.85 73.8402 133.58 73.9902 134.06C74.1302 134.54 74.3602 134.86 74.6602 135.02C74.8202 135.1 75.0602 135.21 75.3802 135.36C76.4502 135.83 76.9902 136.45 76.9902 137.23C76.9902 137.9 76.7802 138.4 76.3402 138.72C75.9102 139.04 75.2502 139.2 74.3702 139.2H68.8702C67.9402 139.2 67.2602 139.06 66.8402 138.77C66.4202 138.48 66.2002 138.02 66.2002 137.38C66.2002 136.5 66.7202 135.84 67.7602 135.39C68.0502 135.26 68.2602 135.16 68.4102 135.08C68.6702 134.92 68.8402 134.68 68.9502 134.37C69.0502 134.06 69.1102 133.54 69.1102 132.82V127.24H68.4602C67.8002 127.24 67.3002 127.1 66.9602 126.82C66.6202 126.54 66.4402 126.13 66.4402 125.58C66.4402 125.21 66.5202 124.89 66.6702 124.62C66.8202 124.35 67.0702 124.07 67.4302 123.8L70.2402 121.59C70.5802 121.32 70.8902 121.13 71.1702 121.01C71.4502 120.9 71.7702 120.84 72.1202 120.84C72.8102 120.84 73.2802 121.12 73.5502 121.68C73.8102 122.24 74.0102 122.52 74.1402 122.52C74.1602 122.52 74.4702 122.24 75.0902 121.68C75.7102 121.12 76.4602 120.84 77.3402 120.84C78.4402 120.84 79.3302 121.22 79.9802 121.99C80.6402 122.76 80.9702 123.78 80.9702 125.07C80.9702 126.22 80.7002 127.11 80.1702 127.74C79.6302 128.36 78.8702 128.68 77.8802 128.68C77.3502 128.68 76.9302 128.54 76.6102 128.25C76.2902 127.96 76.1302 127.58 76.1302 127.1L76.1502 126.96L76.1702 126.81C76.1702 126.48 76.0902 126.21 75.9302 126.02C75.7702 125.83 75.5502 125.73 75.2802 125.73C74.8002 125.73 74.4302 126.01 74.1802 126.57C73.9202 127.13 73.8002 127.93 73.8002 128.97" fill="white"/>
<path d="M94.3098 131.79H86.8398C87.0298 132.8 87.4898 133.61 88.2198 134.24C88.9498 134.86 89.7998 135.18 90.7798 135.18C91.6898 135.18 92.6398 134.81 93.6298 134.08C94.6198 133.34 95.3198 132.97 95.7598 132.97C96.3198 132.97 96.7998 133.2 97.1898 133.66C97.5798 134.11 97.7798 134.69 97.7798 135.38C97.7798 136.52 97.0998 137.54 95.7498 138.46C94.3998 139.37 92.7398 139.83 90.7898 139.83C88.1298 139.83 85.9698 138.97 84.3098 137.25C82.6498 135.53 81.8198 133.31 81.8198 130.58C81.8198 127.63 82.6198 125.28 84.2098 123.52C85.7998 121.76 87.9098 120.88 90.5398 120.88C92.7998 120.88 94.6798 121.59 96.1898 123.02C97.6998 124.45 98.4498 126.19 98.4498 128.26C98.4498 129.59 98.1598 130.51 97.5898 131.04C97.0098 131.56 95.9198 131.82 94.3198 131.82M90.9698 128.28C91.9298 128.28 92.5898 128.19 92.9498 128C93.3098 127.82 93.4898 127.48 93.4898 127C93.4898 126.41 93.2198 125.92 92.6698 125.55C92.1298 125.17 91.4098 124.98 90.5298 124.98C89.5798 124.98 88.7498 125.29 88.0298 125.92C87.3098 126.54 86.8898 127.33 86.7798 128.27H90.9598L90.9698 128.28Z" fill="white"/>
<path d="M118 126.62V132.22H118.29C118.83 132.22 119.28 132.4 119.64 132.76C119.99 133.12 120.17 133.58 120.17 134.14C120.17 134.83 119.71 135.6 118.8 136.45L118.68 136.55L115.48 139.51C115.22 139.78 114.97 139.97 114.72 140.09C114.47 140.2 114.2 140.26 113.91 140.26C113.38 140.26 112.9 140.04 112.48 139.6C112.06 139.16 111.84 138.66 111.84 138.1C111.84 137.79 112.08 137.24 112.57 136.43C113.06 135.62 113.3 134.69 113.3 133.63V129.47C113.3 128.24 113.13 127.4 112.8 126.95C112.46 126.5 111.86 126.28 111 126.28C109.96 126.28 109.19 126.75 108.69 127.7C108.19 128.64 107.94 130.11 107.94 132.1C107.94 133.02 108 133.71 108.13 134.19C108.26 134.67 108.46 134.99 108.73 135.15C108.87 135.25 109.09 135.37 109.38 135.51C110.26 135.94 110.7 136.53 110.7 137.26C110.7 137.95 110.53 138.45 110.18 138.76C109.84 139.07 109.26 139.23 108.46 139.23H103.05C102.12 139.23 101.45 139.08 101.03 138.8C100.61 138.51 100.41 138.05 100.41 137.41C100.41 136.56 100.9 135.91 101.87 135.47C102.19 135.33 102.44 135.21 102.61 135.11C102.85 134.98 103.02 134.75 103.13 134.43C103.23 134.1 103.29 133.58 103.29 132.86V127.29H102.67C102.01 127.29 101.51 127.15 101.17 126.87C100.82 126.59 100.65 126.18 100.65 125.63C100.65 125.26 100.72 124.94 100.88 124.67C101.03 124.4 101.29 124.12 101.64 123.85L104.45 121.64C104.83 121.35 105.16 121.16 105.42 121.05C105.68 120.95 105.98 120.9 106.3 120.9C106.8 120.9 107.19 121.05 107.49 121.37C107.79 121.68 107.93 122.09 107.93 122.58V123.06C107.93 123.25 107.96 123.38 108.01 123.46C108.07 123.53 108.15 123.57 108.26 123.57C108.37 123.57 108.59 123.39 108.91 123.02C110.11 121.61 111.54 120.91 113.19 120.91C114.84 120.91 116.05 121.37 116.82 122.28C117.59 123.19 117.97 124.66 117.97 126.67" fill="white"/>
<path d="M139.05 114.51V132.87C139.05 133.49 139.08 133.94 139.13 134.19C139.19 134.45 139.29 134.66 139.43 134.84C139.53 134.95 139.73 135.11 140.03 135.3C140.75 135.75 141.11 136.38 141.11 137.2C141.11 137.84 140.93 138.34 140.56 138.69C140.19 139.04 139.67 139.22 139 139.22H136.53C135.68 139.22 135.08 139 134.74 138.57C134.39 138.14 134.22 137.32 134.22 136.12V130.62C134.22 129 133.91 127.78 133.29 126.94C132.67 126.11 131.77 125.69 130.59 125.69C129.41 125.69 128.53 126.09 127.87 126.9C127.21 127.71 126.89 128.83 126.89 130.25C126.89 131.45 127.19 132.45 127.78 133.24C128.37 134.03 129.11 134.43 129.99 134.43C130.18 134.43 130.43 134.39 130.74 134.31C131.04 134.23 131.25 134.19 131.36 134.19C131.89 134.19 132.31 134.37 132.62 134.72C132.93 135.07 133.09 135.55 133.09 136.16C133.09 137.2 132.68 138.06 131.86 138.74C131.04 139.42 130 139.76 128.71 139.76C126.71 139.76 125.07 138.88 123.81 137.13C122.54 135.37 121.91 133.08 121.91 130.25C121.91 127.42 122.6 125.21 123.98 123.45C125.36 121.69 127.08 120.81 129.15 120.81C130.29 120.81 131.37 121.11 132.39 121.7C133.41 122.29 133.94 122.59 133.97 122.59C134.13 122.59 134.23 122.56 134.28 122.5C134.33 122.44 134.35 122.24 134.35 121.9V118.8H133.46C132.82 118.8 132.32 118.65 131.97 118.33C131.62 118.02 131.44 117.58 131.44 117.02C131.44 116.62 131.52 116.28 131.67 116.01C131.82 115.74 132.07 115.48 132.43 115.22L135.51 112.94L135.53 112.92C136.19 112.45 136.79 112.22 137.35 112.22C137.94 112.22 138.37 112.39 138.64 112.74C138.9 113.09 139.04 113.68 139.04 114.53" fill="white"/>
<path d="M150.71 128.97V131.87C150.71 132.85 150.78 133.58 150.93 134.06C151.07 134.54 151.3 134.86 151.6 135.02C151.76 135.1 152 135.21 152.32 135.36C153.39 135.83 153.93 136.45 153.93 137.23C153.93 137.9 153.72 138.4 153.28 138.72C152.85 139.04 152.19 139.2 151.31 139.2H145.81C144.88 139.2 144.2 139.06 143.78 138.77C143.36 138.48 143.14 138.02 143.14 137.38C143.14 136.5 143.66 135.84 144.7 135.39C144.99 135.26 145.2 135.16 145.35 135.08C145.61 134.92 145.78 134.68 145.89 134.37C145.99 134.06 146.05 133.54 146.05 132.82V127.24H145.4C144.74 127.24 144.24 127.1 143.9 126.82C143.56 126.54 143.38 126.13 143.38 125.58C143.38 125.21 143.46 124.89 143.61 124.62C143.76 124.35 144.01 124.07 144.37 123.8L147.18 121.59C147.52 121.32 147.83 121.13 148.11 121.01C148.39 120.9 148.71 120.84 149.06 120.84C149.75 120.84 150.22 121.12 150.49 121.68C150.75 122.24 150.95 122.52 151.08 122.52C151.1 122.52 151.41 122.24 152.03 121.68C152.65 121.12 153.4 120.84 154.28 120.84C155.38 120.84 156.27 121.22 156.92 121.99C157.58 122.76 157.91 123.78 157.91 125.07C157.91 126.22 157.64 127.11 157.11 127.74C156.57 128.36 155.81 128.68 154.82 128.68C154.29 128.68 153.87 128.54 153.55 128.25C153.23 127.96 153.07 127.58 153.07 127.1L153.09 126.96L153.11 126.81C153.11 126.48 153.03 126.21 152.87 126.02C152.71 125.83 152.49 125.73 152.22 125.73C151.74 125.73 151.37 126.01 151.12 126.57C150.86 127.13 150.74 127.93 150.74 128.97" fill="white"/>
<path d="M175.86 126.43V132.87C175.86 133.49 175.89 133.93 175.96 134.19C176.02 134.45 176.12 134.66 176.25 134.84C176.36 134.97 176.56 135.12 176.85 135.3C177.6 135.75 177.98 136.38 177.98 137.2C177.98 137.84 177.79 138.34 177.42 138.69C177.04 139.04 176.51 139.22 175.82 139.22H173.3C172.45 139.22 171.85 139 171.51 138.57C171.17 138.14 170.99 137.32 170.99 136.12V131.1H170.06C168.42 131.1 167.12 131.34 166.15 131.81C165.18 132.28 164.7 132.9 164.7 133.67C164.7 134.05 164.87 134.39 165.2 134.67C165.54 134.95 165.94 135.09 166.43 135.09C166.67 135.09 166.99 134.98 167.38 134.74C167.77 134.51 168.08 134.39 168.3 134.39C168.73 134.39 169.09 134.6 169.38 135.01C169.67 135.43 169.81 135.96 169.81 136.6C169.81 137.58 169.41 138.36 168.61 138.94C167.81 139.52 166.74 139.82 165.39 139.82C163.77 139.82 162.41 139.27 161.29 138.16C160.18 137.06 159.62 135.69 159.62 134.05C159.62 132.03 160.52 130.46 162.32 129.34C164.12 128.22 166.63 127.66 169.85 127.66H170.98V126.91C170.98 126.25 170.8 125.74 170.43 125.36C170.06 124.98 169.54 124.8 168.87 124.8C168.2 124.8 167.33 125.19 166.18 125.98C165.03 126.76 164.09 127.16 163.37 127.16C162.7 127.16 162.14 126.96 161.71 126.56C161.28 126.16 161.06 125.66 161.06 125.05C161.06 123.88 161.8 122.89 163.27 122.08C164.74 121.27 166.63 120.87 168.92 120.87C171.21 120.87 172.9 121.35 174.09 122.3C175.28 123.25 175.87 124.64 175.87 126.45" fill="white"/>
<path d="M69.0902 155.36C68.8102 155.36 68.5502 155.34 68.3002 155.3C68.1502 155.27 67.8502 155.19 67.3902 155.04C66.8302 154.86 66.6102 154.82 66.5302 154.82C66.4302 154.82 66.3502 154.85 66.2902 154.91C66.2502 154.95 66.1902 155.06 66.1502 155.32L65.8402 155.36L65.7902 152.03L66.1002 151.98C66.2702 152.7 66.4302 153.21 66.6402 153.55C66.8402 153.88 67.1502 154.16 67.5702 154.38C67.9902 154.6 68.4502 154.71 68.9502 154.71C69.5202 154.71 69.9802 154.56 70.3102 154.26C70.6402 153.96 70.8002 153.6 70.8002 153.2C70.8002 152.97 70.7402 152.74 70.6102 152.51C70.4802 152.28 70.2902 152.06 70.0202 151.86C69.8402 151.72 69.3402 151.42 68.5202 150.96C67.7002 150.5 67.1102 150.13 66.7702 149.86C66.4202 149.58 66.1502 149.28 65.9702 148.94C65.7902 148.6 65.7002 148.23 65.7002 147.83C65.7002 147.13 65.9702 146.52 66.5102 146.02C67.0402 145.52 67.7302 145.26 68.5602 145.26C69.0702 145.26 69.6202 145.39 70.2002 145.64C70.4602 145.75 70.6402 145.81 70.7402 145.81C70.8502 145.81 70.9402 145.78 71.0002 145.71C71.0702 145.64 71.1302 145.51 71.1702 145.29L71.4802 145.25L71.5302 148.61L71.2202 148.66C71.0902 147.99 70.9302 147.49 70.7202 147.12C70.5102 146.75 70.2002 146.46 69.8002 146.24C69.4002 146.02 68.9902 145.91 68.5702 145.91C68.1002 145.91 67.7002 146.06 67.3902 146.35C67.0802 146.64 66.9302 146.97 66.9302 147.33C66.9302 147.61 67.0302 147.87 67.2202 148.09C67.5102 148.44 68.2002 148.91 69.2902 149.49C70.2002 149.98 70.8002 150.34 71.1302 150.6C71.4602 150.86 71.7202 151.17 71.9002 151.52C72.0802 151.87 72.1702 152.25 72.1702 152.64C72.1702 153.38 71.8802 154.02 71.3102 154.55C70.7402 155.08 70.0002 155.35 69.1002 155.35" fill="#C4C4C4"/>
<path d="M71.4601 145.3V148.61H71.2001C71.1101 147.97 70.9601 147.47 70.7401 147.09C70.5201 146.71 70.2101 146.41 69.8101 146.19C69.4101 145.97 68.9901 145.86 68.5501 145.86C68.0601 145.86 67.6601 146.01 67.3401 146.31C67.0201 146.61 66.8601 146.95 66.8601 147.33C66.8601 147.62 66.9601 147.89 67.1601 148.13C67.4501 148.48 68.1501 148.95 69.2401 149.54C70.1301 150.02 70.7501 150.39 71.0701 150.64C71.4001 150.9 71.6501 151.2 71.8301 151.55C72.0101 151.9 72.0901 152.26 72.0901 152.65C72.0901 153.37 71.8101 154 71.2501 154.52C70.6901 155.05 69.9601 155.31 69.0801 155.31C68.8001 155.31 68.5401 155.29 68.3001 155.25C68.1501 155.23 67.8501 155.14 67.3901 154.99C66.9301 154.84 66.6401 154.77 66.5201 154.77C66.4001 154.77 66.3101 154.8 66.2401 154.87C66.1701 154.94 66.1201 155.09 66.0901 155.31H65.8301V152.03H66.0901C66.2101 152.72 66.3801 153.23 66.5801 153.57C66.7901 153.91 67.1001 154.19 67.5301 154.42C67.9601 154.65 68.4201 154.76 68.9301 154.76C69.5201 154.76 69.9801 154.6 70.3301 154.29C70.6701 153.98 70.8401 153.61 70.8401 153.19C70.8401 152.95 70.7801 152.72 70.6501 152.48C70.5201 152.24 70.3201 152.02 70.0501 151.81C69.8701 151.67 69.3701 151.37 68.5501 150.91C67.7301 150.45 67.1501 150.08 66.8001 149.81C66.4501 149.54 66.1901 149.24 66.0101 148.91C65.8301 148.58 65.7401 148.22 65.7401 147.82C65.7401 147.13 66.0001 146.54 66.5301 146.05C67.0601 145.55 67.7301 145.3 68.5401 145.3C69.0501 145.3 69.5901 145.42 70.1601 145.67C70.4201 145.79 70.6101 145.85 70.7201 145.85C70.8401 145.85 70.9401 145.81 71.0201 145.74C71.1001 145.67 71.1601 145.52 71.2101 145.3H71.4701M71.5701 145.2H71.1301L71.1101 145.28C71.0601 145.53 71.0001 145.63 70.9501 145.67C70.8901 145.73 70.8201 145.75 70.7201 145.75C70.6601 145.75 70.5101 145.72 70.2001 145.58C69.6201 145.32 69.0601 145.2 68.5401 145.2C67.7001 145.2 67.0001 145.46 66.4601 145.97C65.9201 146.48 65.6401 147.11 65.6401 147.82C65.6401 148.23 65.7401 148.61 65.9201 148.96C66.1001 149.3 66.3801 149.61 66.7301 149.89C67.0801 150.17 67.6701 150.54 68.4901 151C69.3001 151.45 69.8001 151.75 69.9801 151.89C70.2401 152.09 70.4301 152.3 70.5601 152.53C70.6801 152.75 70.7401 152.98 70.7401 153.2C70.7401 153.6 70.5801 153.93 70.2601 154.23C69.9401 154.52 69.4901 154.67 68.9301 154.67C68.4401 154.67 67.9901 154.56 67.5801 154.34C67.1701 154.12 66.8701 153.85 66.6701 153.53C66.4701 153.2 66.3101 152.69 66.1901 152.02L66.1701 151.94H65.7301V155.42H66.1801V155.34C66.2301 155.08 66.2901 154.99 66.3201 154.96L66.5301 154.88C66.6101 154.88 66.8101 154.92 67.3701 155.1C67.8401 155.25 68.1401 155.34 68.2901 155.36C68.5401 155.4 68.8101 155.42 69.0901 155.42C70.0001 155.42 70.7501 155.15 71.3301 154.61C71.9101 154.07 72.2101 153.41 72.2101 152.66C72.2101 152.26 72.1201 151.88 71.9301 151.52C71.7501 151.16 71.4901 150.84 71.1501 150.58C70.8201 150.32 70.2001 149.95 69.3001 149.47C68.2201 148.89 67.5301 148.42 67.2501 148.08C67.0601 147.86 66.9701 147.62 66.9701 147.35C66.9701 147 67.1201 146.68 67.4201 146.4C67.7201 146.12 68.1001 145.98 68.5701 145.98C68.9801 145.98 69.3901 146.09 69.7801 146.3C70.1701 146.51 70.4701 146.8 70.6801 147.16C70.8901 147.52 71.0401 148.02 71.1201 148.64V148.73H71.5801V145.22L71.5701 145.2Z" fill="#C4C4C4"/>
<path d="M76.4101 155.34C75.4201 155.34 74.6301 154.94 74.0501 154.16C73.5601 153.5 73.3101 152.75 73.3101 151.93C73.3101 151.33 73.4601 150.73 73.7601 150.14C74.0601 149.55 74.4601 149.1 74.9401 148.82C75.4301 148.54 75.9501 148.39 76.4901 148.39C77.4801 148.39 78.2901 148.77 78.8901 149.52C79.4001 150.16 79.6601 150.91 79.6601 151.74C79.6601 152.32 79.5201 152.92 79.2401 153.52C78.9601 154.12 78.5701 154.58 78.0701 154.88C77.5801 155.18 77.0201 155.34 76.4201 155.34M76.2701 148.95C76.0301 148.95 75.7901 149.02 75.5401 149.17C75.3001 149.31 75.1001 149.57 74.9501 149.93C74.8001 150.29 74.7201 150.77 74.7201 151.34C74.7201 152.27 74.9101 153.08 75.2701 153.75C75.6301 154.41 76.1101 154.75 76.7001 154.75C77.1401 154.75 77.5001 154.57 77.7901 154.2C78.0801 153.83 78.2201 153.19 78.2201 152.29C78.2201 151.16 77.9701 150.26 77.4901 149.61C77.1701 149.17 76.7501 148.95 76.2501 148.95" fill="#C4C4C4"/>
<path d="M76.49 148.44C77.47 148.44 78.25 148.81 78.85 149.55C79.35 150.19 79.61 150.92 79.61 151.74C79.61 152.32 79.47 152.91 79.19 153.5C78.91 154.09 78.53 154.54 78.04 154.84C77.55 155.14 77.01 155.29 76.41 155.29C75.44 155.29 74.66 154.9 74.09 154.12C73.61 153.47 73.36 152.73 73.36 151.92C73.36 151.33 73.51 150.74 73.8 150.15C74.09 149.56 74.48 149.13 74.96 148.85C75.44 148.57 75.95 148.43 76.49 148.43M76.72 154.79C77.18 154.79 77.55 154.6 77.85 154.22C78.15 153.84 78.29 153.2 78.29 152.28C78.29 151.13 78.04 150.23 77.55 149.57C77.22 149.12 76.79 148.89 76.27 148.89C76.02 148.89 75.77 148.96 75.52 149.11C75.27 149.26 75.06 149.52 74.91 149.89C74.76 150.26 74.68 150.74 74.68 151.32C74.68 152.26 74.87 153.07 75.24 153.76C75.62 154.44 76.11 154.78 76.72 154.78M76.49 148.34C75.94 148.34 75.41 148.49 74.92 148.77C74.42 149.06 74.02 149.51 73.72 150.11C73.42 150.71 73.27 151.32 73.27 151.92C73.27 152.75 73.52 153.51 74.02 154.18C74.61 154.98 75.42 155.38 76.42 155.38C77.04 155.38 77.6 155.22 78.1 154.91C78.6 154.6 79 154.13 79.28 153.53C79.56 152.93 79.71 152.32 79.71 151.73C79.71 150.89 79.45 150.13 78.93 149.48C78.32 148.72 77.5 148.33 76.49 148.33M76.72 154.69C76.14 154.69 75.69 154.37 75.33 153.72C74.97 153.05 74.78 152.25 74.78 151.33C74.78 150.76 74.85 150.29 75 149.94C75.15 149.59 75.34 149.34 75.57 149.21C75.81 149.07 76.04 149 76.27 149C76.76 149 77.15 149.21 77.47 149.64C77.95 150.28 78.19 151.17 78.19 152.29C78.19 153.18 78.05 153.81 77.77 154.17C77.49 154.52 77.15 154.7 76.72 154.7" fill="#C4C4C4"/>
<path d="M81.4701 158.26C81.1801 158.26 80.9401 158.18 80.7501 158.01C80.5601 157.84 80.4601 157.64 80.4601 157.42C80.4601 157.2 80.5301 157.04 80.6701 156.91C80.8101 156.78 81.0001 156.72 81.2401 156.72C81.4001 156.72 81.6201 156.77 81.8901 156.88C82.1401 156.97 82.2101 156.98 82.2301 156.98C82.3601 156.98 82.5001 156.91 82.6601 156.77C82.8201 156.63 82.9901 156.35 83.1501 155.94L83.6101 154.82L81.2901 149.98C81.2201 149.83 81.1101 149.66 80.9601 149.44C80.8401 149.28 80.7501 149.17 80.6801 149.12C80.5801 149.05 80.4101 148.99 80.1801 148.93L80.1401 148.62L83.2001 148.57L83.2501 148.88L83.0501 148.93C82.8501 148.93 82.7001 148.97 82.6101 149.06C82.5101 149.14 82.4701 149.24 82.4701 149.36C82.4701 149.54 82.5501 149.78 82.7001 150.1L84.2701 153.36L85.6301 149.79C85.7101 149.6 85.7501 149.42 85.7501 149.24L85.7101 149.08L85.5601 148.97C85.5101 148.95 85.4001 148.93 85.1501 148.93L85.1001 148.62L87.2501 148.57L87.3001 148.88C87.0901 148.95 86.9601 148.98 86.8701 149.04C86.7801 149.09 86.6801 149.2 86.5801 149.34C86.5401 149.4 86.4601 149.58 86.3401 149.87L83.7101 156.32C83.4501 156.95 83.1101 157.44 82.7001 157.76C82.2801 158.09 81.8701 158.25 81.4801 158.25" fill="#C4C4C4"/>
<path d="M87.2499 148.63V148.89C87.0799 148.91 86.9399 148.95 86.8499 149C86.7599 149.06 86.6499 149.16 86.5399 149.32C86.4999 149.39 86.4199 149.57 86.2999 149.86L83.6699 156.31C83.4199 156.94 83.0799 157.41 82.6699 157.73C82.2599 158.05 81.8599 158.21 81.4799 158.21C81.1999 158.21 80.9699 158.13 80.7999 157.97C80.6199 157.81 80.5299 157.63 80.5299 157.42C80.5299 157.22 80.5899 157.06 80.7199 156.94C80.8499 156.82 81.0299 156.76 81.2499 156.76C81.4099 156.76 81.6199 156.81 81.8899 156.92C82.0799 156.99 82.1999 157.03 82.2399 157.03C82.3799 157.03 82.5299 156.96 82.6999 156.81C82.8699 156.66 83.0399 156.38 83.1999 155.96L83.6599 154.84L81.3399 149.96C81.2699 149.81 81.1599 149.63 80.9999 149.42C80.8799 149.26 80.7899 149.15 80.7099 149.09C80.5999 149.02 80.4299 148.95 80.1899 148.89V148.63H83.1999V148.89H83.0499C82.8399 148.89 82.6799 148.94 82.5699 149.03C82.4599 149.12 82.4099 149.24 82.4099 149.37C82.4099 149.55 82.4899 149.81 82.6399 150.13L84.2099 153.39L85.6599 149.82C85.7399 149.63 85.7799 149.44 85.7799 149.25L85.7299 149.06L85.5499 148.94C85.4699 148.91 85.3299 148.89 85.1299 148.89V148.63H87.2299M87.3499 148.53H85.0499V148.99H85.1499C85.3899 148.99 85.4899 149.01 85.5399 149.03L85.6699 149.12L85.6999 149.25C85.6999 149.42 85.6599 149.6 85.5899 149.78L84.2299 153.14L82.7599 150.08C82.6099 149.77 82.5399 149.53 82.5399 149.36C82.5399 149.25 82.5799 149.17 82.6599 149.09C82.7499 149.01 82.8799 148.98 83.0699 148.98H83.3199V148.52H80.1099V148.96L80.1899 148.98C80.4199 149.03 80.5799 149.09 80.6799 149.16C80.7199 149.19 80.8099 149.27 80.9399 149.47C81.0899 149.68 81.1999 149.86 81.2699 150L83.5699 154.84L83.1299 155.92C82.9699 156.32 82.8099 156.59 82.6499 156.73C82.4999 156.86 82.3699 156.92 82.2499 156.92C82.2499 156.92 82.1799 156.92 81.9299 156.82C81.6499 156.71 81.4299 156.66 81.2599 156.66C81.0099 156.66 80.8099 156.73 80.6599 156.87C80.5099 157.01 80.4299 157.19 80.4299 157.42C80.4299 157.65 80.5299 157.87 80.7299 158.04C80.9299 158.22 81.1799 158.31 81.4799 158.31C81.8799 158.31 82.2999 158.14 82.7299 157.81C83.1499 157.48 83.4999 156.99 83.7599 156.35L86.3899 149.9C86.5299 149.54 86.5899 149.41 86.6199 149.37C86.7199 149.23 86.8199 149.13 86.8999 149.09C86.9799 149.04 87.0999 149.01 87.2599 148.99H87.3499V148.53Z" fill="#C4C4C4"/>
<path d="M89.3898 155.28C88.9298 155.28 88.5498 155.12 88.2498 154.81C87.9498 154.5 87.7998 154.08 87.7998 153.57C87.7998 153.25 87.8698 152.96 88.0198 152.72C88.2198 152.39 88.5598 152.09 89.0398 151.8C89.5198 151.52 90.2998 151.18 91.4298 150.77L91.3998 150.56C91.3998 149.93 91.2998 149.5 91.1098 149.26C90.9198 149.03 90.6298 148.92 90.2598 148.92C89.9798 148.92 89.7498 149 89.5898 149.15C89.4198 149.3 89.3398 149.47 89.3398 149.66V150.07C89.3498 150.3 89.2898 150.48 89.1698 150.61C89.0498 150.74 88.8898 150.8 88.6998 150.8C88.5098 150.8 88.3498 150.73 88.2398 150.6C88.1198 150.47 88.0598 150.29 88.0598 150.07C88.0598 149.65 88.2698 149.26 88.6998 148.92C89.1198 148.57 89.7198 148.4 90.4798 148.4C91.0598 148.4 91.5398 148.5 91.9098 148.7C92.1998 148.85 92.4098 149.09 92.5498 149.41C92.6398 149.62 92.6798 150.03 92.6798 150.67V152.86C92.6798 153.47 92.6798 153.85 92.7098 153.98C92.7298 154.11 92.7698 154.19 92.8098 154.23L92.9598 154.29L93.1298 154.25C93.2198 154.19 93.4098 154.02 93.6898 153.74L93.7798 154.17C93.2398 154.92 92.7098 155.28 92.2198 155.28C91.9698 155.28 91.7798 155.19 91.6298 155.02C91.4798 154.85 91.4098 154.57 91.3998 154.17C90.8098 154.73 90.3998 155.02 90.2198 155.1C89.9598 155.22 89.6798 155.28 89.3898 155.28ZM91.3998 151.31C90.7298 151.58 90.2998 151.77 90.0998 151.88C89.7298 152.08 89.4698 152.3 89.3198 152.52C89.1698 152.74 89.0898 152.97 89.0898 153.23C89.0898 153.56 89.1898 153.83 89.3798 154.04C89.5698 154.25 89.7898 154.36 90.0398 154.36C90.3798 154.36 90.8498 154.13 91.4198 153.67L91.3998 151.32V151.31Z" fill="#C4C4C4"/>
<path d="M90.4602 148.44C91.0302 148.44 91.5002 148.54 91.8702 148.73C92.1502 148.88 92.3502 149.11 92.4802 149.42C92.5602 149.62 92.6102 150.04 92.6102 150.66V152.85C92.6102 153.47 92.6202 153.84 92.6502 153.98C92.6802 154.12 92.7102 154.21 92.7702 154.26L92.9602 154.33L93.1602 154.28C93.2602 154.22 93.4502 154.05 93.7302 153.77V154.17C93.2002 154.88 92.7002 155.23 92.2202 155.23C91.9902 155.23 91.8102 155.15 91.6702 154.99C91.5302 154.83 91.4602 154.56 91.4602 154.17C90.8002 154.68 90.3802 154.98 90.2102 155.06C89.9602 155.18 89.6902 155.24 89.4002 155.24C88.9502 155.24 88.5802 155.09 88.3002 154.78C88.0102 154.47 87.8702 154.07 87.8702 153.57C87.8702 153.26 87.9402 152.98 88.0802 152.75C88.2702 152.43 88.6102 152.13 89.0902 151.85C89.5702 151.57 90.3602 151.22 91.4702 150.82V150.57C91.4702 149.93 91.3702 149.48 91.1602 149.24C90.9602 149 90.6602 148.88 90.2702 148.88C89.9702 148.88 89.7402 148.96 89.5602 149.12C89.3802 149.28 89.2902 149.46 89.2902 149.67V150.08C89.3002 150.3 89.2502 150.46 89.1402 150.58C89.0302 150.7 88.8802 150.76 88.7102 150.76C88.5402 150.76 88.3902 150.7 88.2802 150.58C88.1702 150.46 88.1102 150.29 88.1102 150.08C88.1102 149.68 88.3202 149.3 88.7302 148.97C89.1402 148.63 89.7302 148.46 90.4702 148.46M90.0402 154.41C90.4002 154.41 90.8702 154.18 91.4502 153.7V151.24C90.7402 151.52 90.2802 151.72 90.0702 151.84C89.7002 152.05 89.4302 152.26 89.2702 152.49C89.1102 152.72 89.0302 152.96 89.0302 153.23C89.0302 153.57 89.1302 153.85 89.3302 154.07C89.5302 154.29 89.7602 154.4 90.0302 154.4M90.4602 148.34C89.6902 148.34 89.0802 148.52 88.6502 148.87C88.2102 149.23 87.9902 149.63 87.9902 150.06C87.9902 150.3 88.0602 150.49 88.1802 150.63C88.3102 150.77 88.4802 150.85 88.6802 150.85C88.8802 150.85 89.0602 150.78 89.1902 150.64C89.3202 150.5 89.3802 150.31 89.3802 150.07V149.66C89.3702 149.48 89.4402 149.33 89.6002 149.19C89.7602 149.05 89.9702 148.98 90.2402 148.98C90.6002 148.98 90.8702 149.09 91.0602 149.31C91.2502 149.53 91.3402 149.95 91.3402 150.57V150.75C90.2602 151.15 89.4802 151.49 89.0102 151.76C88.5202 152.05 88.1702 152.36 87.9702 152.7C87.8202 152.94 87.7402 153.24 87.7402 153.57C87.7402 154.09 87.8902 154.52 88.2002 154.85C88.5102 155.18 88.9002 155.34 89.3802 155.34C89.6802 155.34 89.9702 155.28 90.2302 155.15C90.4002 155.07 90.7602 154.82 91.3502 154.37C91.3702 154.68 91.4502 154.91 91.5802 155.06C91.7302 155.24 91.9502 155.34 92.2102 155.34C92.7202 155.34 93.2602 154.97 93.8002 154.24L93.8202 154.21V153.54L93.6502 153.71C93.3102 154.05 93.1602 154.17 93.1002 154.21L92.9502 154.24L92.8302 154.19C92.8302 154.19 92.7702 154.12 92.7502 153.97C92.7302 153.84 92.7202 153.46 92.7202 152.85V150.66C92.7202 150.01 92.6802 149.59 92.5902 149.38C92.4502 149.05 92.2302 148.8 91.9302 148.65C91.5502 148.45 91.0602 148.35 90.4702 148.35M90.0402 154.31C89.8002 154.31 89.6002 154.21 89.4202 154.01C89.2302 153.8 89.1402 153.55 89.1402 153.23C89.1402 152.98 89.2102 152.75 89.3602 152.55C89.5102 152.34 89.7702 152.13 90.1202 151.93C90.3102 151.82 90.7202 151.64 91.3502 151.39V153.66C90.8102 154.09 90.3602 154.31 90.0402 154.31Z" fill="#C4C4C4"/>
<path d="M103.07 155.14L103.02 154.83C103.44 154.76 103.69 154.7 103.81 154.6C103.93 154.5 103.99 154.38 103.99 154.24C103.99 154.04 103.9 153.72 103.71 153.28L103.13 151.9L99.4701 151.93L98.8701 153.41C98.7101 153.77 98.6301 154.05 98.6301 154.22C98.6301 154.35 98.6901 154.46 98.8201 154.57C98.9501 154.67 99.2401 154.74 99.6901 154.77L99.7401 155.08L96.6701 155.13L96.6201 154.82C97.0501 154.7 97.3001 154.61 97.4101 154.51C97.6401 154.29 97.9101 153.83 98.2001 153.15L101.57 145.27L101.86 145.24L105.24 153.23C105.5 153.86 105.74 154.27 105.96 154.46C106.17 154.64 106.47 154.75 106.84 154.77L106.89 155.08V155.13H103.06L103.07 155.14ZM99.7401 151.39L102.98 151.32L101.36 147.63L99.7401 151.39Z" fill="#C4C4C4"/>
<path d="M101.87 145.3L105.2 153.26C105.47 153.9 105.71 154.32 105.93 154.51C106.15 154.7 106.45 154.81 106.84 154.83V155.09H103.06V154.83C103.44 154.81 103.7 154.75 103.83 154.64C103.96 154.53 104.03 154.4 104.03 154.24C104.03 154.03 103.94 153.71 103.75 153.26L103.17 151.88H99.4601L98.8101 153.39C98.6501 153.76 98.5701 154.04 98.5701 154.22C98.5701 154.37 98.6401 154.49 98.7801 154.61C98.9201 154.72 99.2201 154.79 99.6801 154.83V155.09H96.6601V154.83C97.0601 154.76 97.3201 154.67 97.4401 154.55C97.6801 154.32 97.9501 153.86 98.2401 153.17L101.61 145.29H101.86M99.7001 151.37H102.99L101.37 147.5L99.7001 151.37ZM101.94 145.2H101.56L101.53 145.26L98.1601 153.14C97.8701 153.82 97.6201 154.27 97.3901 154.48C97.3201 154.55 97.1401 154.65 96.6601 154.73H96.5801V155.19H99.7901V154.73H99.7001C99.1601 154.68 98.9401 154.6 98.8601 154.53C98.7501 154.44 98.6901 154.34 98.6901 154.22C98.6901 154.05 98.7701 153.78 98.9201 153.43L99.5401 151.98H103.11L103.66 153.3C103.84 153.73 103.93 154.05 103.93 154.24C103.93 154.36 103.88 154.47 103.77 154.56C103.69 154.62 103.5 154.71 103.05 154.73H102.95V155.19H106.93V154.73H106.84C106.47 154.7 106.19 154.6 105.98 154.43C105.77 154.25 105.54 153.84 105.28 153.22L101.95 145.26L101.93 145.2H101.94ZM99.8501 151.27L101.36 147.76L102.83 151.27H99.8401H99.8501Z" fill="#C4C4C4"/>
<path d="M110.27 158.26C109.36 158.26 108.57 158.05 107.94 157.64C107.57 157.4 107.39 157.14 107.39 156.87C107.39 156.75 107.42 156.63 107.47 156.51C107.55 156.33 107.72 156.09 107.97 155.77C108 155.73 108.24 155.47 108.69 155C108.45 154.93 108.27 154.8 108.17 154.68C108.06 154.56 108.01 154.41 108.01 154.26C108.01 154.08 108.08 153.89 108.22 153.65C108.36 153.42 108.67 153.1 109.16 152.7C108.77 152.59 108.45 152.31 108.24 151.96C108.03 151.61 107.91 151.21 107.91 150.79C107.91 150.14 108.16 149.57 108.65 149.1C109.14 148.63 109.78 148.39 110.54 148.39C111.16 148.39 111.71 148.54 112.17 148.85H113.51C113.79 148.85 113.85 148.85 113.88 148.86H113.9L113.98 148.94C114.01 148.99 114.03 149.07 114.03 149.19C114.03 149.32 114.02 149.41 113.99 149.47V149.49L113.89 149.55C113.86 149.56 113.79 149.57 113.52 149.57H112.68C112.99 149.84 113.13 150.28 113.13 150.82C113.13 151.43 112.89 151.97 112.42 152.4C111.95 152.83 111.31 153.05 110.53 153.05C110.21 153.05 109.87 153 109.53 152.91C109.37 153.07 109.24 153.23 109.17 153.35C109.1 153.48 109.07 153.58 109.07 153.67L109.17 153.87C109.17 153.87 109.33 153.98 109.6 154.02C109.73 154.04 110.06 154.05 110.58 154.07C111.54 154.09 112.18 154.13 112.47 154.17C112.92 154.23 113.28 154.4 113.55 154.67C113.82 154.94 113.96 155.28 113.96 155.68C113.96 156.22 113.7 156.74 113.2 157.21C112.46 157.9 111.48 158.25 110.29 158.25M109.14 155.15C108.93 155.38 108.77 155.6 108.66 155.79C108.55 155.98 108.5 156.17 108.5 156.34C108.5 156.55 108.63 156.73 108.89 156.89C109.35 157.18 110.03 157.32 110.9 157.32C111.77 157.32 112.35 157.17 112.75 156.88C113.14 156.59 113.33 156.28 113.33 155.96C113.33 155.73 113.22 155.58 113 155.48C112.76 155.38 112.28 155.32 111.57 155.3C110.53 155.27 109.71 155.22 109.15 155.14M110.42 148.82C110.09 148.82 109.81 148.95 109.58 149.22C109.36 149.49 109.24 149.91 109.24 150.47C109.24 151.2 109.4 151.77 109.71 152.17C109.94 152.47 110.24 152.62 110.6 152.62C110.96 152.62 111.22 152.49 111.44 152.23C111.66 151.97 111.77 151.56 111.77 151C111.77 150.27 111.61 149.69 111.29 149.27C111.06 148.97 110.77 148.82 110.4 148.82" fill="#C4C4C4"/>
<path d="M110.54 148.44C111.16 148.44 111.69 148.59 112.14 148.89H113.51C113.71 148.89 113.83 148.89 113.86 148.91L113.93 148.97C113.93 148.97 113.97 149.09 113.97 149.2C113.97 149.32 113.96 149.41 113.93 149.46L113.86 149.52C113.86 149.52 113.71 149.54 113.5 149.54H112.66C112.92 149.88 113.06 150.31 113.06 150.84C113.06 151.44 112.83 151.96 112.37 152.39C111.91 152.82 111.29 153.03 110.51 153.03C110.19 153.03 109.86 152.98 109.53 152.89C109.32 153.07 109.18 153.22 109.11 153.36C109.04 153.49 109 153.61 109 153.7L109.12 153.93C109.2 154.01 109.35 154.06 109.57 154.09C109.7 154.11 110.03 154.12 110.56 154.14C111.53 154.16 112.16 154.2 112.44 154.24C112.88 154.3 113.23 154.46 113.49 154.73C113.75 154.99 113.88 155.32 113.88 155.7C113.88 156.23 113.63 156.73 113.13 157.2C112.4 157.89 111.44 158.23 110.26 158.23C109.35 158.23 108.58 158.03 107.96 157.62C107.61 157.38 107.43 157.14 107.43 156.89C107.43 156.78 107.45 156.66 107.51 156.55C107.59 156.38 107.76 156.13 108 155.82C108.03 155.78 108.27 155.52 108.72 155.06C108.48 154.91 108.3 154.78 108.2 154.67C108.1 154.55 108.05 154.42 108.05 154.28C108.05 154.11 108.12 153.92 108.25 153.7C108.38 153.48 108.69 153.17 109.18 152.76C108.78 152.57 108.48 152.3 108.27 151.95C108.06 151.6 107.95 151.22 107.95 150.8C107.95 150.16 108.19 149.61 108.67 149.15C109.15 148.69 109.77 148.46 110.52 148.46M110.6 152.66C110.96 152.66 111.25 152.53 111.48 152.26C111.71 151.99 111.83 151.57 111.83 151C111.83 150.25 111.67 149.67 111.34 149.24C111.1 148.93 110.79 148.77 110.42 148.77C110.07 148.77 109.78 148.91 109.54 149.19C109.3 149.47 109.19 149.89 109.19 150.47C109.19 151.21 109.35 151.79 109.67 152.2C109.92 152.51 110.23 152.67 110.6 152.67M110.9 157.37C111.75 157.37 112.37 157.22 112.77 156.92C113.17 156.62 113.37 156.3 113.37 155.96C113.37 155.72 113.25 155.54 113.01 155.44C112.77 155.34 112.28 155.27 111.56 155.26C110.5 155.23 109.69 155.18 109.12 155.1C108.9 155.34 108.73 155.56 108.62 155.77C108.51 155.98 108.45 156.17 108.45 156.34C108.45 156.57 108.59 156.76 108.86 156.93C109.33 157.22 110.01 157.37 110.9 157.37ZM110.54 148.34C109.76 148.34 109.12 148.58 108.62 149.06C108.12 149.54 107.86 150.12 107.86 150.78C107.86 151.22 107.97 151.62 108.19 151.98C108.39 152.3 108.66 152.56 109.01 152.76C108.58 153.13 108.3 153.41 108.17 153.63C108.03 153.87 107.96 154.08 107.96 154.26C107.96 154.43 108.02 154.58 108.14 154.72C108.23 154.83 108.38 154.94 108.58 155.07C108.05 155.62 107.96 155.72 107.94 155.75C107.68 156.07 107.52 156.31 107.43 156.5C107.37 156.62 107.34 156.75 107.34 156.88C107.34 157.17 107.53 157.44 107.91 157.7C108.55 158.12 109.34 158.33 110.27 158.33C111.47 158.33 112.46 157.97 113.21 157.27C113.73 156.79 113.99 156.26 113.99 155.7C113.99 155.29 113.85 154.94 113.57 154.66C113.29 154.38 112.92 154.21 112.46 154.14C112.17 154.1 111.55 154.06 110.56 154.04C110.04 154.03 109.71 154.01 109.58 153.99C109.33 153.95 109.22 153.9 109.18 153.86L109.09 153.7C109.09 153.62 109.12 153.52 109.19 153.41C109.25 153.3 109.37 153.16 109.55 153C109.87 153.09 110.2 153.13 110.51 153.13C111.31 153.13 111.96 152.9 112.44 152.46C112.92 152.01 113.16 151.47 113.16 150.84C113.16 150.37 113.06 149.97 112.85 149.64H113.5C113.78 149.64 113.86 149.63 113.89 149.61L114.01 149.51C114.05 149.44 114.06 149.34 114.06 149.2C114.06 149.07 114.04 148.98 114 148.92L113.88 148.82C113.88 148.82 113.79 148.8 113.49 148.8H112.15C111.69 148.5 111.14 148.35 110.52 148.35M110.6 152.56C110.25 152.56 109.97 152.42 109.75 152.13C109.45 151.74 109.29 151.18 109.29 150.46C109.29 149.91 109.4 149.51 109.62 149.25C109.84 148.99 110.1 148.87 110.42 148.87C110.77 148.87 111.04 149.01 111.26 149.3C111.57 149.7 111.73 150.27 111.73 151C111.73 151.55 111.62 151.95 111.41 152.2C111.2 152.45 110.93 152.57 110.6 152.57M110.9 157.27C110.03 157.27 109.36 157.13 108.91 156.85C108.67 156.7 108.55 156.53 108.55 156.34C108.55 156.18 108.6 156.01 108.71 155.82C108.81 155.63 108.97 155.43 109.16 155.21C109.73 155.29 110.54 155.34 111.56 155.37C112.27 155.39 112.75 155.45 112.98 155.55C113.18 155.64 113.28 155.78 113.28 155.98C113.28 156.28 113.09 156.58 112.72 156.86C112.34 157.14 111.73 157.29 110.91 157.29" fill="#C4C4C4"/>
<path d="M114.4 155.14L114.35 154.84C114.72 154.79 114.96 154.74 115.11 154.64C115.22 154.57 115.29 154.46 115.34 154.31C115.35 154.26 115.37 154.1 115.37 153.64V151.13C115.37 150.39 115.36 149.94 115.33 149.8C115.3 149.67 115.25 149.57 115.18 149.51C115.11 149.45 115.02 149.42 114.9 149.42C114.76 149.42 114.6 149.45 114.42 149.52L114.28 149.23L116.27 148.38H116.59L116.64 149.88C117.1 148.87 117.67 148.38 118.26 148.38C118.53 148.38 118.76 148.46 118.94 148.63C119.12 148.8 119.21 148.99 119.21 149.21C119.21 149.41 119.14 149.57 119.01 149.71C118.88 149.85 118.72 149.92 118.54 149.92C118.36 149.92 118.17 149.83 117.95 149.67C117.71 149.48 117.59 149.44 117.53 149.44L117.29 149.57C117.08 149.76 116.86 150.08 116.64 150.51V153.59C116.64 153.94 116.69 154.2 116.77 154.38C116.83 154.5 116.93 154.6 117.07 154.68C117.22 154.76 117.44 154.8 117.72 154.8L117.77 155.1V155.15H114.41L114.4 155.14Z" fill="#C4C4C4"/>
<path d="M118.25 148.44C118.51 148.44 118.72 148.52 118.89 148.68C119.06 148.84 119.14 149.02 119.14 149.23C119.14 149.41 119.08 149.57 118.96 149.7C118.84 149.83 118.69 149.89 118.52 149.89C118.35 149.89 118.17 149.81 117.97 149.65C117.77 149.49 117.61 149.41 117.52 149.41C117.43 149.41 117.34 149.46 117.24 149.55C117.03 149.74 116.81 150.06 116.58 150.5V153.6C116.58 153.96 116.62 154.23 116.71 154.41C116.77 154.54 116.88 154.64 117.03 154.73C117.18 154.81 117.41 154.86 117.7 154.86V155.11H114.39V154.86C114.72 154.86 114.97 154.81 115.13 154.71C115.25 154.63 115.33 154.51 115.38 154.35C115.4 154.27 115.42 154.04 115.42 153.67V151.16C115.42 150.41 115.4 149.96 115.37 149.81C115.34 149.67 115.28 149.56 115.2 149.5C115.12 149.43 115.02 149.4 114.89 149.4C114.75 149.4 114.58 149.43 114.4 149.51L114.33 149.26L116.29 148.47H116.59V149.92C117.13 148.95 117.69 148.47 118.26 148.47M118.25 148.34C117.71 148.34 117.19 148.74 116.68 149.53V148.34H116.25L114.29 149.14L114.21 149.17L114.23 149.25L114.3 149.51L114.33 149.62L114.43 149.58C114.6 149.51 114.76 149.48 114.89 149.48C114.99 149.48 115.07 149.51 115.14 149.56C115.2 149.61 115.25 149.7 115.27 149.82C115.29 149.91 115.31 150.22 115.31 151.14V153.65C115.31 154.13 115.29 154.27 115.28 154.31C115.24 154.45 115.17 154.55 115.07 154.61C114.93 154.7 114.7 154.75 114.39 154.75H114.29V155.2H117.8V154.75H117.7C117.43 154.75 117.22 154.71 117.08 154.64C116.94 154.57 116.85 154.47 116.8 154.37C116.72 154.2 116.68 153.94 116.68 153.6V150.52C116.89 150.1 117.1 149.8 117.3 149.62L117.51 149.5C117.51 149.5 117.65 149.52 117.9 149.72C118.13 149.9 118.33 149.99 118.52 149.99C118.71 149.99 118.89 149.92 119.03 149.77C119.17 149.62 119.24 149.44 119.24 149.24C119.24 149 119.14 148.8 118.95 148.62C118.76 148.45 118.52 148.36 118.24 148.36" fill="#C4C4C4"/>
<path d="M122.59 155.34C121.6 155.34 120.81 154.94 120.23 154.16C119.74 153.5 119.49 152.75 119.49 151.93C119.49 151.33 119.64 150.73 119.94 150.14C120.24 149.55 120.63 149.1 121.12 148.82C121.61 148.54 122.13 148.39 122.67 148.39C123.66 148.39 124.47 148.77 125.07 149.52C125.58 150.16 125.84 150.91 125.84 151.74C125.84 152.32 125.7 152.92 125.42 153.52C125.14 154.12 124.75 154.58 124.25 154.88C123.76 155.18 123.2 155.34 122.6 155.34M122.45 148.95C122.21 148.95 121.97 149.02 121.72 149.17C121.48 149.31 121.28 149.57 121.13 149.93C120.98 150.29 120.9 150.77 120.9 151.34C120.9 152.27 121.09 153.08 121.45 153.75C121.81 154.41 122.3 154.75 122.89 154.75C123.33 154.75 123.69 154.57 123.98 154.2C124.27 153.83 124.41 153.19 124.41 152.29C124.41 151.16 124.17 150.26 123.68 149.61C123.36 149.17 122.94 148.95 122.44 148.95" fill="#C4C4C4"/>
<path d="M122.67 148.44C123.65 148.44 124.44 148.81 125.03 149.55C125.53 150.19 125.78 150.92 125.78 151.74C125.78 152.32 125.64 152.91 125.36 153.5C125.08 154.09 124.7 154.54 124.21 154.84C123.72 155.14 123.18 155.29 122.58 155.29C121.61 155.29 120.83 154.9 120.26 154.12C119.77 153.47 119.53 152.73 119.53 151.92C119.53 151.33 119.68 150.74 119.97 150.15C120.26 149.56 120.65 149.13 121.13 148.85C121.61 148.57 122.12 148.43 122.65 148.43M122.89 154.79C123.35 154.79 123.72 154.6 124.02 154.22C124.32 153.84 124.47 153.2 124.47 152.28C124.47 151.13 124.22 150.23 123.73 149.57C123.4 149.12 122.97 148.89 122.45 148.89C122.2 148.89 121.95 148.96 121.7 149.11C121.45 149.26 121.25 149.52 121.09 149.89C120.94 150.26 120.86 150.74 120.86 151.32C120.86 152.26 121.05 153.07 121.42 153.76C121.79 154.44 122.29 154.78 122.9 154.78M122.67 148.34C122.12 148.34 121.59 148.49 121.1 148.77C120.61 149.06 120.2 149.51 119.9 150.11C119.6 150.71 119.45 151.32 119.45 151.92C119.45 152.75 119.7 153.51 120.2 154.18C120.79 154.98 121.6 155.38 122.6 155.38C123.21 155.38 123.78 155.22 124.28 154.91C124.78 154.6 125.18 154.13 125.47 153.53C125.75 152.93 125.9 152.32 125.9 151.73C125.9 150.89 125.64 150.13 125.12 149.48C124.51 148.72 123.69 148.33 122.68 148.33M122.89 154.69C122.31 154.69 121.86 154.37 121.5 153.72C121.14 153.05 120.95 152.25 120.95 151.33C120.95 150.76 121.03 150.29 121.18 149.94C121.33 149.59 121.52 149.34 121.75 149.21C121.99 149.07 122.22 149 122.45 149C122.94 149 123.33 149.21 123.65 149.64C124.13 150.28 124.37 151.17 124.37 152.29C124.37 153.18 124.23 153.81 123.95 154.17C123.67 154.52 123.33 154.7 122.9 154.7" fill="#C4C4C4"/>
<path d="M130.13 155.14L130.08 154.83L130.49 154.78C130.88 154.78 131.15 154.66 131.32 154.41C131.41 154.27 131.45 153.93 131.45 153.4V147.22C131.45 146.49 131.35 146.22 131.27 146.13C131.1 145.94 130.84 145.84 130.49 145.84H130.13L130.08 145.53L133.64 145.48C134.5 145.48 135.19 145.57 135.68 145.75C136.18 145.93 136.61 146.24 136.95 146.66C137.3 147.09 137.47 147.6 137.47 148.18C137.47 148.97 137.2 149.62 136.68 150.12C136.16 150.62 135.41 150.87 134.46 150.87C134.23 150.87 133.98 150.85 133.71 150.82C133.44 150.79 133.15 150.74 132.84 150.67L132.9 153.41C132.9 154 132.96 154.36 133.08 154.5C133.25 154.7 133.51 154.79 133.85 154.79H134.22L134.27 155.1V155.15H130.12L130.13 155.14ZM132.93 150.21C133.13 150.21 133.34 150.24 133.53 150.27C133.72 150.29 133.88 150.3 134.02 150.3C134.49 150.3 134.91 150.11 135.25 149.75C135.6 149.38 135.77 148.9 135.77 148.31C135.77 147.9 135.69 147.52 135.52 147.18C135.36 146.84 135.12 146.58 134.82 146.4C134.52 146.23 134.17 146.14 133.79 146.14C133.55 146.14 133.25 146.19 132.88 146.27L132.92 150.2H132.94L132.93 150.21Z" fill="#C4C4C4"/>
<path d="M133.64 145.52C134.5 145.52 135.17 145.61 135.66 145.78C136.15 145.96 136.57 146.25 136.91 146.67C137.25 147.09 137.42 147.59 137.42 148.16C137.42 148.94 137.16 149.58 136.65 150.07C136.14 150.56 135.41 150.8 134.47 150.8C134.24 150.8 133.99 150.78 133.72 150.75C133.45 150.72 133.16 150.67 132.86 150.6V153.39C132.86 153.99 132.93 154.37 133.06 154.51C133.24 154.72 133.51 154.82 133.87 154.82H134.24V155.08H130.14V154.82H130.5C130.9 154.82 131.19 154.69 131.37 154.42C131.46 154.27 131.51 153.93 131.51 153.38V147.2C131.51 146.6 131.44 146.22 131.32 146.08C131.14 145.87 130.86 145.77 130.5 145.77H130.14V145.51H133.65M134.02 150.35C134.51 150.35 134.93 150.16 135.29 149.78C135.64 149.4 135.82 148.91 135.82 148.31C135.82 147.9 135.74 147.51 135.57 147.16C135.4 146.8 135.16 146.54 134.85 146.36C134.54 146.18 134.19 146.1 133.79 146.1C133.55 146.1 133.24 146.15 132.86 146.23V150.21C133.11 150.26 133.33 150.29 133.52 150.32C133.71 150.34 133.88 150.35 134.01 150.35M133.64 145.42H130.03V145.88H130.49C130.82 145.88 131.07 145.97 131.23 146.16C131.31 146.25 131.4 146.5 131.4 147.22V153.4C131.4 154.05 131.33 154.3 131.28 154.38C131.13 154.62 130.87 154.73 130.5 154.73H130.04V155.19H134.34V154.73H133.87C133.54 154.73 133.3 154.64 133.13 154.45C133.05 154.36 132.96 154.11 132.96 153.39V150.73C133.22 150.78 133.48 150.82 133.71 150.85C133.98 150.88 134.24 150.9 134.47 150.9C135.43 150.9 136.19 150.64 136.72 150.14C137.25 149.63 137.52 148.97 137.52 148.16C137.52 147.56 137.34 147.04 136.99 146.61C136.64 146.18 136.2 145.87 135.7 145.69C135.2 145.51 134.51 145.42 133.64 145.42ZM132.96 146.31C133.29 146.23 133.57 146.2 133.78 146.2C134.16 146.2 134.5 146.28 134.79 146.45C135.08 146.62 135.31 146.87 135.47 147.2C135.63 147.54 135.71 147.91 135.71 148.31C135.71 148.88 135.54 149.36 135.2 149.71C134.86 150.07 134.47 150.25 134.01 150.25C133.88 150.25 133.72 150.24 133.53 150.22C133.36 150.2 133.17 150.17 132.95 150.13V146.31H132.96Z" fill="#C4C4C4"/>
<path d="M141.49 155.34L139.14 149.85C139.04 149.6 138.94 149.42 138.85 149.32C138.76 149.22 138.64 149.13 138.51 149.05C138.43 149.01 138.28 148.97 138.05 148.93L138.01 148.62L141.1 148.57L141.15 148.88L140.9 148.93C140.73 148.93 140.6 148.97 140.51 149.05C140.42 149.13 140.38 149.24 140.38 149.37C140.38 149.53 140.43 149.72 140.52 149.93L142.03 153.5L143.45 149.8C143.55 149.54 143.61 149.35 143.61 149.22L143.57 149.09L143.39 148.96C143.32 148.94 143.16 148.92 142.92 148.92L142.87 148.61L145.03 148.56L145.08 148.87C144.8 148.94 144.64 148.98 144.55 149.06C144.39 149.19 144.25 149.43 144.12 149.75L141.81 155.33H141.49V155.34Z" fill="#C4C4C4"/>
<path d="M145.03 148.63V148.89C144.79 148.91 144.62 148.96 144.52 149.04C144.36 149.18 144.21 149.42 144.07 149.75L141.78 155.3H141.49L139.18 149.84C139.08 149.59 138.98 149.4 138.88 149.29C138.78 149.18 138.67 149.09 138.52 149.01C138.44 148.97 138.28 148.93 138.05 148.89V148.63H141.09V148.89H140.89C140.71 148.89 140.57 148.93 140.47 149.02C140.37 149.11 140.32 149.23 140.32 149.38C140.32 149.55 140.37 149.74 140.47 149.97L141.97 153.54L143.48 149.83C143.59 149.57 143.64 149.37 143.64 149.23L143.58 149.07L143.38 148.93C143.3 148.9 143.14 148.89 142.89 148.89V148.63H145M145.13 148.53H142.82V148.99H142.92C143.21 148.99 143.33 149.01 143.38 149.02L143.53 149.13L143.57 149.23C143.57 149.35 143.52 149.54 143.41 149.79L141.99 153.27L140.58 149.92C140.49 149.71 140.44 149.52 140.44 149.37C140.44 149.25 140.48 149.15 140.55 149.08C140.63 149.01 140.75 148.97 140.9 148.97H141.2V148.51H137.96V148.96H138.04C138.32 149.02 138.43 149.06 138.48 149.08C138.61 149.15 138.72 149.23 138.81 149.34C138.9 149.44 138.99 149.62 139.09 149.86L141.4 155.32L141.43 155.38H141.85L141.88 155.32L144.17 149.77C144.29 149.46 144.44 149.23 144.59 149.1C144.64 149.06 144.77 149 145.04 148.98H145.13V148.52V148.53Z" fill="#C4C4C4"/>
<path d="M147.57 155.25C147.34 155.25 147.12 155.19 146.91 155.06C146.69 154.94 146.53 154.75 146.43 154.52C146.33 154.29 146.28 153.94 146.28 153.47V149.12L145.31 149.17L145.26 148.89C145.54 148.74 145.8 148.57 146.07 148.33C146.34 148.09 146.58 147.8 146.78 147.46C146.89 147.28 147.04 146.96 147.23 146.49L147.5 146.46L147.55 148.63L149.01 148.58L149.06 149.12L147.5 149.17L147.55 153.31C147.55 153.72 147.61 153.99 147.72 154.13C147.83 154.27 147.97 154.33 148.14 154.33C148.29 154.33 148.43 154.28 148.56 154.19C148.7 154.1 148.8 153.96 148.88 153.79L149.2 153.76C149.08 154.29 148.84 154.65 148.53 154.89C148.22 155.13 147.9 155.25 147.57 155.25Z" fill="#C4C4C4"/>
<path d="M147.49 146.5V148.62H149V149.11H147.49V153.3C147.49 153.72 147.55 154 147.67 154.15C147.79 154.3 147.95 154.37 148.13 154.37C148.28 154.37 148.44 154.32 148.58 154.22C148.73 154.12 148.84 153.98 148.92 153.79H149.19C149.03 154.25 148.79 154.6 148.49 154.83C148.19 155.06 147.88 155.18 147.56 155.18C147.34 155.18 147.13 155.12 146.92 155C146.71 154.88 146.56 154.71 146.46 154.49C146.36 154.27 146.31 153.92 146.31 153.46V149.11H145.29V148.88C145.55 148.78 145.81 148.6 146.08 148.35C146.35 148.1 146.59 147.81 146.8 147.47C146.91 147.29 147.06 146.96 147.25 146.49H147.47M147.59 146.4H147.2L147.17 146.46C146.98 146.93 146.83 147.25 146.73 147.43C146.52 147.76 146.29 148.05 146.02 148.29C145.76 148.53 145.5 148.7 145.26 148.8L145.2 148.82V149.22H146.22V153.47C146.22 153.96 146.27 154.31 146.38 154.54C146.49 154.78 146.65 154.97 146.88 155.1C147.1 155.23 147.33 155.29 147.57 155.29C147.91 155.29 148.24 155.17 148.56 154.92C148.88 154.68 149.12 154.31 149.29 153.83L149.34 153.7H148.86L148.83 153.76C148.76 153.93 148.66 154.06 148.53 154.14C148.4 154.23 148.27 154.27 148.13 154.27C147.97 154.27 147.85 154.21 147.74 154.09C147.67 154 147.58 153.8 147.58 153.31V149.22H149.09V148.53H147.58V146.41L147.59 146.4Z" fill="#C4C4C4"/>
<path d="M150.99 155.34C150.76 155.34 150.56 155.26 150.4 155.1C150.24 154.94 150.16 154.74 150.16 154.51C150.16 154.28 150.24 154.08 150.4 153.92C150.56 153.76 150.76 153.68 150.99 153.68C151.22 153.68 151.42 153.76 151.58 153.92C151.74 154.08 151.82 154.28 151.82 154.51C151.82 154.74 151.74 154.94 151.58 155.1C151.42 155.26 151.22 155.34 150.99 155.34Z" fill="#C4C4C4"/>
<path d="M150.99 153.72C151.21 153.72 151.4 153.8 151.55 153.95C151.7 154.1 151.78 154.29 151.78 154.5C151.78 154.71 151.7 154.9 151.55 155.05C151.4 155.2 151.21 155.28 151 155.28C150.79 155.28 150.6 155.2 150.45 155.05C150.3 154.9 150.22 154.71 150.22 154.5C150.22 154.29 150.3 154.09 150.45 153.94C150.6 153.79 150.79 153.71 151 153.71M150.99 153.62C150.75 153.62 150.54 153.7 150.37 153.87C150.2 154.04 150.11 154.25 150.11 154.5C150.11 154.75 150.2 154.95 150.37 155.12C150.54 155.29 150.75 155.38 150.99 155.38C151.23 155.38 151.44 155.29 151.61 155.12C151.78 154.95 151.87 154.74 151.87 154.5C151.87 154.26 151.78 154.05 151.61 153.88C151.44 153.71 151.23 153.62 150.98 153.62" fill="#C4C4C4"/>
<path d="M156.7 155.14L156.65 154.83L157.06 154.78C157.45 154.78 157.72 154.66 157.89 154.41C157.98 154.27 158.03 153.93 158.03 153.39V147.21C158.03 146.63 157.97 146.26 157.85 146.12C157.68 145.92 157.41 145.83 157.07 145.83H156.71L156.66 145.52L161.04 145.47L161.09 145.78V145.83H160.98C160.51 145.83 160.18 145.88 159.99 145.97C159.8 146.06 159.66 146.18 159.59 146.32C159.52 146.46 159.48 146.82 159.48 147.38V153.39C159.48 153.77 159.52 154.04 159.59 154.17C159.64 154.26 159.72 154.32 159.83 154.37C159.91 154.4 160.16 154.44 160.91 154.44H161.61C162.34 154.44 162.85 154.39 163.14 154.28C163.43 154.17 163.69 153.99 163.93 153.72C164.17 153.45 164.41 153.02 164.66 152.43L164.95 152.45L164.16 155.15H156.71L156.7 155.14Z" fill="#C4C4C4"/>
<path d="M161.03 145.52V145.78H160.96C160.49 145.78 160.15 145.83 159.96 145.92C159.76 146.02 159.61 146.14 159.54 146.3C159.47 146.45 159.43 146.81 159.43 147.38V153.39C159.43 153.78 159.47 154.05 159.54 154.2C159.6 154.3 159.68 154.37 159.8 154.42C159.92 154.47 160.28 154.49 160.9 154.49H161.6C162.33 154.49 162.85 154.44 163.15 154.33C163.45 154.22 163.72 154.03 163.96 153.75C164.2 153.48 164.45 153.04 164.69 152.45L164.92 152.5L164.1 155.1H156.69V154.84H157.05C157.45 154.84 157.74 154.71 157.92 154.44C158.02 154.29 158.07 153.94 158.07 153.4V147.22C158.07 146.62 158 146.25 157.87 146.1C157.69 145.89 157.41 145.79 157.05 145.79H156.69V145.53H161.02M161.13 145.42H156.59V145.88H157.05C157.39 145.88 157.63 145.97 157.79 146.16C157.87 146.25 157.96 146.51 157.96 147.22V153.4C157.96 154.05 157.89 154.3 157.83 154.39C157.67 154.63 157.42 154.74 157.05 154.74H156.59V155.2H164.18L164.2 155.13L165.02 152.53L165.05 152.43L164.94 152.41L164.71 152.36L164.63 152.34L164.6 152.42C164.36 153 164.12 153.43 163.88 153.69C163.65 153.95 163.39 154.14 163.11 154.24C162.83 154.34 162.32 154.4 161.6 154.4H160.9C160.11 154.4 159.9 154.36 159.84 154.34C159.74 154.3 159.67 154.24 159.63 154.16C159.59 154.07 159.53 153.87 159.53 153.4V147.39C159.53 146.7 159.59 146.45 159.63 146.35C159.69 146.22 159.82 146.11 160 146.02C160.18 145.93 160.5 145.89 160.96 145.89H161.13V145.79V145.43V145.42Z" fill="#C4C4C4"/>
<path d="M167.65 155.25C167.42 155.25 167.2 155.19 166.99 155.06C166.77 154.94 166.61 154.75 166.51 154.52C166.41 154.29 166.36 153.94 166.36 153.47V149.12L165.39 149.17L165.34 148.89C165.62 148.74 165.89 148.57 166.15 148.33C166.42 148.09 166.66 147.79 166.87 147.46C166.97 147.29 167.13 146.96 167.32 146.49L167.58 146.46L167.63 148.63L169.09 148.58L169.14 149.12L167.58 149.17L167.63 153.31C167.63 153.72 167.69 153.99 167.8 154.13C167.91 154.26 168.05 154.33 168.22 154.33C168.37 154.33 168.51 154.28 168.64 154.19C168.78 154.1 168.88 153.96 168.96 153.79L169.28 153.76C169.16 154.29 168.92 154.65 168.61 154.89C168.3 155.13 167.98 155.25 167.65 155.25Z" fill="#C4C4C4"/>
<path d="M167.57 146.5V148.62H169.08V149.11H167.57V153.3C167.57 153.72 167.63 154 167.75 154.15C167.87 154.3 168.02 154.37 168.21 154.37C168.36 154.37 168.52 154.32 168.66 154.22C168.81 154.12 168.92 153.98 169 153.79H169.27C169.1 154.25 168.87 154.6 168.57 154.83C168.27 155.06 167.96 155.18 167.64 155.18C167.42 155.18 167.21 155.12 167 155C166.79 154.88 166.64 154.71 166.54 154.49C166.44 154.27 166.39 153.92 166.39 153.46V149.11H165.37V148.88C165.63 148.78 165.89 148.6 166.17 148.35C166.44 148.1 166.68 147.81 166.89 147.47C167 147.29 167.15 146.96 167.34 146.49H167.56M167.67 146.4H167.28L167.26 146.46C167.07 146.93 166.92 147.25 166.82 147.43C166.61 147.76 166.38 148.05 166.11 148.29C165.85 148.53 165.59 148.7 165.35 148.8L165.29 148.82V149.22H166.31V153.47C166.31 153.96 166.36 154.31 166.47 154.54C166.58 154.78 166.75 154.97 166.97 155.1C167.19 155.23 167.42 155.29 167.66 155.29C168 155.29 168.33 155.17 168.65 154.92C168.96 154.68 169.21 154.31 169.38 153.83L169.43 153.7H168.95L168.92 153.76C168.85 153.93 168.75 154.06 168.62 154.14C168.49 154.23 168.36 154.27 168.22 154.27C168.06 154.27 167.94 154.21 167.84 154.09C167.77 154 167.68 153.8 167.68 153.31V149.22H169.19V148.53H167.68V146.41L167.67 146.4Z" fill="#C4C4C4"/>
<path d="M174.28 155.34L174.23 154.37C174 154.74 173.68 154.98 173.38 155.12C173.08 155.27 172.74 155.34 172.39 155.34C171.67 155.34 171.04 155.04 170.5 154.44C169.97 153.84 169.7 153.07 169.7 152.13C169.7 151.19 170 150.33 170.59 149.56C171.18 148.78 171.95 148.39 172.88 148.39C173.46 148.39 173.95 148.58 174.33 148.95L174.25 147.79C174.25 147.06 174.23 146.6 174.2 146.44C174.17 146.28 174.12 146.18 174.05 146.12C173.98 146.07 173.9 146.04 173.8 146.04C173.68 146.04 173.53 146.08 173.33 146.15L173.17 145.87L175.12 145.02H175.46L175.51 152.54C175.51 153.29 175.53 153.76 175.56 153.92C175.59 154.08 175.64 154.19 175.71 154.24C175.78 154.3 175.86 154.33 175.95 154.33C176.07 154.33 176.24 154.29 176.44 154.21L176.58 154.49L174.62 155.35H174.29L174.28 155.34ZM172.78 148.92C172.38 148.92 172.02 149.1 171.71 149.46C171.29 149.94 171.08 150.65 171.08 151.57C171.08 152.49 171.29 153.23 171.69 153.72C172.09 154.21 172.55 154.46 173.04 154.46C173.45 154.46 173.86 154.25 174.25 153.83V150.53C174.21 150.22 174.13 149.93 173.99 149.68C173.85 149.43 173.67 149.23 173.45 149.1C173.23 148.97 173 148.91 172.79 148.91" fill="#C4C4C4"/>
<path d="M175.44 145.06V152.54C175.44 153.3 175.46 153.76 175.49 153.93C175.53 154.1 175.58 154.21 175.66 154.28C175.74 154.35 175.83 154.38 175.93 154.38C176.06 154.38 176.23 154.34 176.44 154.26L176.52 154.51L174.6 155.31H174.28V154.39C173.96 154.72 173.66 154.96 173.35 155.1C173.05 155.24 172.72 155.32 172.38 155.32C171.67 155.32 171.06 155.03 170.53 154.44C170 153.85 169.74 153.09 169.74 152.16C169.74 151.23 170.03 150.38 170.62 149.61C171.2 148.84 171.95 148.46 172.87 148.46C173.44 148.46 173.91 148.64 174.28 149V147.81C174.28 147.07 174.26 146.62 174.23 146.45C174.19 146.28 174.14 146.17 174.06 146.1C173.98 146.04 173.89 146.01 173.78 146.01C173.66 146.01 173.5 146.05 173.29 146.12L173.2 145.87L175.13 145.08H175.45M173.03 154.51C173.46 154.51 173.87 154.3 174.27 153.87V150.54C174.24 150.22 174.16 149.93 174.01 149.66C173.87 149.4 173.68 149.2 173.45 149.06C173.22 148.93 172.99 148.86 172.77 148.86C172.36 148.86 171.99 149.05 171.66 149.42C171.23 149.91 171.02 150.62 171.02 151.57C171.02 152.52 171.23 153.25 171.64 153.76C172.05 154.27 172.52 154.52 173.02 154.52M175.54 144.96H175.08L173.15 145.76L173.06 145.8L173.09 145.89L173.18 146.14L173.22 146.23L173.31 146.2C173.5 146.13 173.65 146.09 173.76 146.09C173.85 146.09 173.92 146.11 173.98 146.16C174.02 146.19 174.07 146.27 174.11 146.45C174.14 146.61 174.16 147.06 174.16 147.79V148.76C173.8 148.48 173.36 148.34 172.85 148.34C171.9 148.34 171.12 148.74 170.52 149.53C169.93 150.31 169.63 151.19 169.63 152.14C169.63 153.09 169.9 153.88 170.45 154.48C170.99 155.09 171.64 155.4 172.37 155.4C172.73 155.4 173.07 155.32 173.39 155.17C173.65 155.05 173.91 154.86 174.17 154.61V155.39H174.63L176.55 154.58L176.63 154.55L176.6 154.46L176.52 154.21L176.49 154.11L176.39 154.15C176.19 154.23 176.03 154.26 175.92 154.26L175.71 154.18C175.65 154.13 175.6 154.03 175.57 153.89C175.53 153.73 175.52 153.27 175.52 152.52V144.94L175.54 144.96ZM173.03 154.41C172.55 154.41 172.12 154.17 171.72 153.69C171.32 153.2 171.12 152.49 171.12 151.57C171.12 150.65 171.33 149.96 171.74 149.49C172.05 149.14 172.39 148.97 172.77 148.97C172.97 148.97 173.19 149.03 173.4 149.16C173.61 149.28 173.79 149.47 173.92 149.72C174.05 149.97 174.14 150.25 174.16 150.56V153.84C173.79 154.23 173.41 154.42 173.02 154.42" fill="#C4C4C4"/>
<path d="M178.29 155.34C178.06 155.34 177.86 155.26 177.7 155.1C177.54 154.94 177.46 154.74 177.46 154.51C177.46 154.28 177.54 154.08 177.7 153.92C177.86 153.76 178.06 153.68 178.29 153.68C178.52 153.68 178.72 153.76 178.88 153.92C179.04 154.08 179.12 154.28 179.12 154.51C179.12 154.74 179.04 154.94 178.88 155.1C178.72 155.26 178.52 155.34 178.29 155.34Z" fill="#C4C4C4"/>
<path d="M178.29 153.72C178.51 153.72 178.7 153.8 178.85 153.95C179 154.1 179.07 154.29 179.07 154.5C179.07 154.71 178.99 154.9 178.84 155.05C178.69 155.2 178.5 155.28 178.29 155.28C178.08 155.28 177.89 155.2 177.74 155.05C177.59 154.9 177.51 154.71 177.51 154.5C177.51 154.29 177.59 154.09 177.74 153.94C177.89 153.79 178.08 153.71 178.29 153.71M178.29 153.62C178.05 153.62 177.84 153.7 177.67 153.87C177.5 154.04 177.41 154.25 177.41 154.5C177.41 154.75 177.5 154.95 177.67 155.12C177.84 155.29 178.05 155.38 178.29 155.38C178.53 155.38 178.74 155.29 178.91 155.12C179.08 154.95 179.17 154.74 179.17 154.5C179.17 154.26 179.08 154.05 178.91 153.88C178.74 153.71 178.53 153.62 178.28 153.62" fill="#C4C4C4"/>
<path d="M118.57 25.8799H95.6901C95.6001 26.1399 95.4801 26.4199 95.3601 26.6799C93.2301 31.4999 90.8401 32.6799 88.7801 33.8499C86.8101 34.9699 85.1301 36.6599 84.8701 37.3399C85.1001 36.7099 86.2501 34.1299 90.0901 31.6699C91.8501 30.5499 93.3001 28.2999 94.4001 25.8899H88.3101C84.4901 30.4299 83.8801 32.1899 82.6701 35.3499C82.1501 32.1699 83.9801 28.7899 86.3501 25.8899H81.9701C82.0401 26.8299 82.1601 27.7599 82.3901 28.6499C81.9901 27.7099 81.7101 26.7999 81.5201 25.8899H80.0501C81.2901 28.8399 81.9501 31.8199 81.6701 35.0699C81.2001 31.7899 79.5601 28.5399 77.9701 25.8899H71.9501C73.1201 28.2099 76.0001 33.2699 80.7101 37.6899C87.6701 44.2499 86.8201 50.9199 85.6701 55.8899C85.2501 49.9199 85.4401 47.0799 82.5801 42.9399C79.8401 38.9799 72.5301 33.5499 71.4801 25.8899H68.6501C70.9001 33.4299 77.3101 38.6099 77.8101 38.9799C72.0001 36.9699 67.9301 31.2499 66.2201 25.8899H60.2301C56.9701 25.8899 54.3301 28.5399 54.3301 31.7899V90.1499C54.3301 93.3999 56.9801 96.0499 60.2301 96.0499H118.59C121.85 96.0499 124.49 93.3999 124.49 90.1499V31.7899C124.49 28.5399 121.84 25.8899 118.59 25.8899M83.4901 38.5499C83.0001 32.2299 89.2001 28.4599 89.9501 28.0399C84.0701 33.5399 83.8401 38.5499 83.8401 38.5499H83.4901ZM71.0301 64.4899C69.5101 62.1999 68.7401 59.4299 68.7401 56.1799C68.7401 51.0999 70.5201 47.0499 74.1001 44.0299C75.7401 42.6699 77.6101 41.5999 79.7701 40.8699C80.5701 41.7399 81.2501 42.5299 81.7601 43.2799C82.7701 44.7299 83.3801 46.0199 83.7501 47.3799C82.1101 47.7099 80.7301 48.2699 79.6001 49.0199C77.5601 50.3999 76.5301 52.3699 76.5301 54.9199C76.5301 56.4899 77.2101 58.1999 78.5201 60.0699C79.8501 61.9199 80.5301 63.2499 80.5301 64.0799C80.5301 65.1599 80.1301 66.0699 79.3601 66.8199C78.5901 67.5699 77.6001 67.9199 76.3801 67.9199C74.3401 67.9199 72.5601 66.7699 71.0201 64.4999M107.44 79.4599C103.46 83.4399 97.8601 85.4099 90.7001 85.4099H81.1201C79.7101 85.4099 78.7101 85.1499 78.1001 84.6399C77.4901 84.1299 77.1901 83.2599 77.1901 82.0599C77.1901 80.5399 78.1701 79.4799 80.1401 78.8499C80.4501 78.7599 80.6801 78.6899 80.8201 78.6399C81.3101 78.4799 81.6601 78.1299 81.8701 77.5899C82.0601 77.0499 82.1501 76.1399 82.1501 74.8299V59.8899C82.1501 59.0699 82.1001 58.4099 82.0101 57.8999C81.8901 57.3799 81.7301 56.9599 81.4701 56.6099C81.3501 56.4399 81.0901 56.2099 80.7501 55.9299C79.8401 55.2299 79.3901 54.4099 79.3901 53.4899C79.3901 52.4799 79.6701 51.7799 80.2101 51.3599C80.7701 50.9099 81.7601 50.7099 83.1601 50.7099H84.3301C84.4001 51.5799 84.4701 52.5399 84.5401 53.5899C84.5901 54.2699 84.6301 54.9699 84.6801 55.7399C84.7301 56.2299 85.1001 56.6299 85.6201 56.6499H85.6901C86.1601 56.6499 86.5601 56.3499 86.6701 55.8799C87.0501 54.2399 87.3501 52.5099 87.4201 50.6999H87.5801C88.9101 50.6999 89.8501 50.9099 90.4101 51.3099C90.9701 51.7299 91.2501 52.3899 91.2501 53.3499C91.2501 53.8899 90.9901 54.6599 90.5001 55.6399C90.0101 56.6499 89.7501 57.6799 89.7501 58.6799V78.4899H92.3301C96.2601 78.4899 99.4001 77.1599 101.79 74.4399C104.16 71.7199 105.33 68.1399 105.33 63.6399C105.33 58.5399 103.81 54.4599 100.72 51.4599C97.6501 48.4399 93.4801 46.9399 88.2601 46.9399C87.9101 46.9399 87.5601 46.9399 87.2101 46.9599C86.8301 44.6199 85.9001 42.2099 84.1401 39.7899C85.5401 39.5799 87.0701 39.4899 88.6601 39.4899C95.8201 39.4899 101.75 41.6899 106.41 46.1399C111.09 50.5899 113.43 56.1599 113.43 62.9099C113.43 69.6599 111.42 75.4899 107.44 79.4399" fill="#059848"/>
<path d="M80.0398 25.8799H77.9598C77.0498 24.3399 76.1298 22.9999 75.4498 21.9699C73.6498 19.1599 71.5598 15.9499 71.2598 13.2599C71.1398 12.2999 70.6498 11.3399 70.1598 12.2099C67.4198 17.1999 67.4198 21.8799 68.6398 25.8899H66.1998C65.5698 23.8099 65.2598 21.7899 65.3598 20.0599C65.7398 12.5899 70.2998 7.22986 75.3798 1.85986C70.8798 8.06986 72.3098 13.0499 75.9698 18.5799C77.6098 21.0899 79.0398 23.4799 80.0398 25.8899" fill="#059848"/>
<path d="M84.8398 25.1598C84.8398 25.1598 87.1898 21.2998 86.7298 16.0598C86.2698 10.8198 87.0698 4.52982 88.7798 3.06982C84.8798 7.46982 85.0098 10.1898 85.0898 13.2498C85.1698 16.3098 86.0998 21.4598 84.8398 25.1498" fill="#059848"/>
<path d="M95.6899 25.8799H94.3999C96.3699 21.6199 97.3299 16.8599 97.3299 16.8599C97.3299 16.8599 97.4899 21.3099 95.6899 25.8799Z" fill="#059848"/>
<path d="M94.6998 18.27C94.4698 18.55 92.4999 20.89 88.6599 25.46L88.3098 25.88H86.3398C89.7298 21.73 94.2498 18.57 94.6998 18.27Z" fill="#059848"/>
<path d="M89.52 0.00999832C89.52 0.00999832 82.73 4.98 79.65 11.64C76.57 18.3 80.66 24.4 80.66 24.4C80.66 24.4 78.9 19.68 80.53 14.59C82.17 9.5 89.52 0 89.52 0" fill="#059848"/>
<path d="M81.96 25.8802H81.51C80.78 22.2702 81.5799 18.8102 83.0299 15.7202C82.8899 16.2602 81.6299 21.2202 81.9499 25.8802" fill="#059848"/>
<path d="M71.9401 25.8801H71.4701C71.4001 25.4601 71.3501 25.0401 71.3301 24.6201C71.3301 24.6201 71.5201 25.0901 71.9401 25.8801Z" fill="#059848"/>
</svg>
