<svg width="226" height="88" viewBox="0 0 226 88" fill="none" xmlns="http://www.w3.org/2000/svg">
<path d="M6.34039 83.8103C6.04039 83.8103 5.75039 83.7903 5.48039 83.7403C5.32039 83.7103 4.99039 83.6203 4.49039 83.4603C4.00039 83.3003 3.68039 83.2203 3.56039 83.2203C3.45039 83.2203 3.36039 83.2503 3.30039 83.3203C3.25039 83.3703 3.19039 83.4803 3.15039 83.7603L2.81039 83.8103L2.76039 80.1903L3.10039 80.1303C3.28039 80.9103 3.46039 81.4703 3.68039 81.8303C3.90039 82.1903 4.24039 82.4903 4.69039 82.7403C5.14039 82.9803 5.65039 83.1003 6.19039 83.1003C6.81039 83.1003 7.31039 82.9303 7.67039 82.6103C8.03039 82.2803 8.21039 81.9003 8.21039 81.4503C8.21039 81.2003 8.14039 80.9503 8.00039 80.7003C7.86039 80.4503 7.65039 80.2103 7.36039 79.9903C7.16039 79.8403 6.61039 79.5103 5.73039 79.0203C4.84039 78.5203 4.20039 78.1203 3.82039 77.8203C3.44039 77.5203 3.15039 77.1803 2.95039 76.8203C2.75039 76.4603 2.65039 76.0503 2.65039 75.6103C2.65039 74.8503 2.94039 74.1903 3.53039 73.6403C4.11039 73.0903 4.86039 72.8203 5.75039 72.8203C6.31039 72.8203 6.90039 72.9603 7.53039 73.2303C7.81039 73.3503 8.01039 73.4203 8.11039 73.4203C8.23039 73.4203 8.32039 73.3903 8.40039 73.3203C8.48039 73.2503 8.54039 73.1003 8.59039 72.8703L8.93039 72.8303L8.98039 76.4803L8.64039 76.5403C8.49039 75.8103 8.33039 75.2603 8.10039 74.8603C7.87039 74.4603 7.53039 74.1403 7.10039 73.9103C6.67039 73.6703 6.22039 73.5603 5.76039 73.5603C5.25039 73.5603 4.81039 73.7203 4.48039 74.0303C4.15039 74.3403 3.98039 74.7003 3.98039 75.1003C3.98039 75.4003 4.09039 75.6803 4.30039 75.9303C4.61039 76.3103 5.37039 76.8203 6.55039 77.4503C7.52039 77.9703 8.19039 78.3703 8.55039 78.6503C8.91039 78.9303 9.19039 79.2703 9.39039 79.6503C9.58039 80.0303 9.68039 80.4403 9.68039 80.8603C9.68039 81.6603 9.37039 82.3603 8.75039 82.9303C8.13039 83.5103 7.33039 83.8003 6.36039 83.8003" fill="#222222"/>
<path d="M8.93035 72.88V76.48H8.65035C8.56035 75.79 8.39035 75.24 8.16035 74.83C7.92035 74.42 7.58035 74.1 7.14035 73.86C6.70035 73.62 6.25035 73.5 5.78035 73.5C5.25035 73.5 4.81035 73.66 4.46035 73.99C4.11035 74.31 3.94035 74.68 3.94035 75.1C3.94035 75.42 4.05035 75.71 4.27035 75.97C4.59035 76.35 5.34035 76.86 6.53035 77.5C7.50035 78.02 8.16035 78.42 8.52035 78.7C8.88035 78.98 9.15035 79.31 9.34035 79.69C9.53035 80.07 9.63035 80.47 9.63035 80.88C9.63035 81.67 9.32035 82.35 8.71035 82.91C8.10035 83.48 7.31035 83.77 6.35035 83.77C6.05035 83.77 5.77035 83.75 5.50035 83.7C5.34035 83.67 5.01035 83.58 4.51035 83.42C4.01035 83.26 3.70035 83.18 3.56035 83.18C3.42035 83.18 3.33035 83.22 3.26035 83.29C3.19035 83.37 3.13035 83.53 3.09035 83.77H2.81035V80.2H3.09035C3.22035 80.95 3.40035 81.51 3.63035 81.88C3.85035 82.25 4.20035 82.56 4.66035 82.8C5.12035 83.05 5.63035 83.17 6.18035 83.17C6.82035 83.17 7.32035 83 7.70035 82.66C8.07035 82.32 8.26035 81.92 8.26035 81.46C8.26035 81.21 8.19035 80.95 8.05035 80.69C7.91035 80.43 7.69035 80.19 7.39035 79.96C7.19035 79.81 6.65035 79.48 5.76035 78.98C4.87035 78.48 4.24035 78.08 3.86035 77.79C3.48035 77.49 3.20035 77.17 3.00035 76.81C2.80035 76.45 2.71035 76.06 2.71035 75.63C2.71035 74.88 3.00035 74.24 3.57035 73.7C4.14035 73.16 4.87035 72.89 5.76035 72.89C6.31035 72.89 6.90035 73.03 7.52035 73.3C7.81035 73.43 8.01035 73.49 8.13035 73.49C8.26035 73.49 8.37035 73.45 8.45035 73.37C8.53035 73.29 8.60035 73.13 8.65035 72.89H8.93035M9.04035 72.77H8.56035L8.54035 72.86C8.48035 73.13 8.42035 73.24 8.37035 73.28C8.31035 73.34 8.22035 73.37 8.12035 73.37C8.05035 73.37 7.89035 73.34 7.56035 73.19C6.93035 72.91 6.32035 72.77 5.76035 72.77C4.85035 72.77 4.09035 73.05 3.50035 73.61C2.91035 74.17 2.61035 74.84 2.61035 75.62C2.61035 76.07 2.71035 76.48 2.92035 76.85C3.12035 77.22 3.42035 77.56 3.80035 77.86C4.18035 78.16 4.82035 78.56 5.71035 79.06C6.59035 79.55 7.13035 79.88 7.33035 80.03C7.61035 80.24 7.82035 80.48 7.96035 80.72C8.09035 80.96 8.16035 81.21 8.16035 81.44C8.16035 81.87 7.99035 82.24 7.64035 82.56C7.29035 82.88 6.81035 83.04 6.20035 83.04C5.67035 83.04 5.17035 82.92 4.73035 82.68C4.29035 82.45 3.95035 82.15 3.74035 81.8C3.52035 81.44 3.35035 80.89 3.22035 80.16L3.20035 80.07H2.72035V83.85H3.21035V83.76C3.27035 83.48 3.33035 83.38 3.36035 83.34C3.41035 83.28 3.49035 83.26 3.59035 83.26C3.67035 83.26 3.90035 83.3 4.50035 83.5C5.01035 83.66 5.33035 83.76 5.50035 83.78C5.77035 83.83 6.06035 83.85 6.37035 83.85C7.36035 83.85 8.17035 83.55 8.80035 82.97C9.43035 82.38 9.75035 81.67 9.75035 80.86C9.75035 80.43 9.65035 80.01 9.45035 79.62C9.25035 79.23 8.96035 78.88 8.60035 78.6C8.24035 78.32 7.57035 77.91 6.59035 77.39C5.42035 76.76 4.67035 76.25 4.36035 75.88C4.15035 75.64 4.05035 75.38 4.05035 75.08C4.05035 74.69 4.21035 74.36 4.54035 74.05C4.87035 73.75 5.28035 73.59 5.78035 73.59C6.23035 73.59 6.67035 73.71 7.09035 73.94C7.51035 74.17 7.84035 74.48 8.06035 74.87C8.29035 75.26 8.45035 75.8 8.54035 76.48V76.58H9.04035V72.77Z" fill="#222222"/>
<path d="M14.3002 83.79C13.2302 83.79 12.3702 83.36 11.7302 82.5C11.2002 81.78 10.9302 80.97 10.9302 80.08C10.9302 79.43 11.0902 78.78 11.4102 78.14C11.7302 77.5 12.1602 77.02 12.6902 76.71C13.2202 76.4 13.7802 76.25 14.3702 76.25C15.4502 76.25 16.3202 76.67 16.9702 77.48C17.5202 78.18 17.8002 78.99 17.8002 79.89C17.8002 80.52 17.6502 81.17 17.3402 81.82C17.0402 82.47 16.6102 82.97 16.0702 83.3C15.5402 83.63 14.9302 83.8 14.2702 83.8M14.1502 76.84C13.8902 76.84 13.6202 76.92 13.3602 77.07C13.1002 77.22 12.8802 77.5 12.7202 77.89C12.5502 78.28 12.4702 78.8 12.4702 79.43C12.4702 80.44 12.6702 81.32 13.0702 82.05C13.4602 82.77 13.9902 83.13 14.6302 83.13C15.1102 83.13 15.5002 82.93 15.8102 82.54C16.1202 82.14 16.2802 81.45 16.2802 80.47C16.2802 79.24 16.0102 78.26 15.4902 77.56C15.1402 77.09 14.6902 76.85 14.1402 76.85" fill="#222222"/>
<path d="M14.3901 76.2902C15.4501 76.2902 16.3101 76.6902 16.9501 77.5002C17.5001 78.1902 17.7701 78.9802 17.7701 79.8802C17.7701 80.5102 17.6201 81.1502 17.3201 81.7902C17.0201 82.4302 16.6001 82.9202 16.0701 83.2502C15.5401 83.5802 14.9501 83.7402 14.3001 83.7402C13.2401 83.7402 12.4001 83.3202 11.7801 82.4802C11.2501 81.7702 10.9901 80.9702 10.9901 80.0902C10.9901 79.4502 11.1501 78.8002 11.4701 78.1702C11.7901 77.5302 12.2101 77.0602 12.7301 76.7602C13.2501 76.4502 13.8001 76.3002 14.3901 76.3002M14.6301 83.1902C15.1301 83.1902 15.5301 82.9802 15.8601 82.5802C16.1801 82.1702 16.3401 81.4702 16.3401 80.4702C16.3401 79.2202 16.0701 78.2402 15.5301 77.5302C15.1701 77.0402 14.7001 76.7902 14.1401 76.7902C13.8701 76.7902 13.6001 76.8702 13.3201 77.0302C13.0501 77.1902 12.8301 77.4702 12.6601 77.8802C12.4901 78.2802 12.4101 78.8002 12.4101 79.4402C12.4101 80.4602 12.6101 81.3402 13.0201 82.0902C13.4301 82.8302 13.9601 83.2002 14.6301 83.2002M14.3901 76.1802C13.7901 76.1802 13.2201 76.3402 12.6801 76.6502C12.1401 76.9602 11.7001 77.4502 11.3801 78.1102C11.0501 78.7602 10.8901 79.4202 10.8901 80.0802C10.8901 80.9802 11.1601 81.8102 11.7001 82.5402C12.3401 83.4102 13.2201 83.8502 14.3101 83.8502C14.9801 83.8502 15.5901 83.6802 16.1401 83.3402C16.6801 83.0002 17.1201 82.5002 17.4301 81.8402C17.7401 81.1802 17.8901 80.5302 17.8901 79.8802C17.8901 78.9602 17.6101 78.1402 17.0501 77.4402C16.3901 76.6102 15.5001 76.1902 14.4001 76.1902M14.6301 83.0802C14.0001 83.0802 13.5101 82.7302 13.1201 82.0202C12.7201 81.3002 12.5201 80.4302 12.5201 79.4302C12.5201 78.8102 12.6001 78.3002 12.7701 77.9202C12.9301 77.5402 13.1401 77.2702 13.3901 77.1302C13.6501 76.9802 13.9001 76.9002 14.1501 76.9002C14.6801 76.9002 15.1101 77.1302 15.4501 77.5902C15.9701 78.2802 16.2301 79.2502 16.2301 80.4702C16.2301 81.4402 16.0801 82.1202 15.7701 82.5102C15.4701 82.9002 15.0901 83.0802 14.6301 83.0802Z" fill="#222222"/>
<path d="M19.8004 86.9602C19.4904 86.9602 19.2203 86.8702 19.0203 86.6802C18.8103 86.5002 18.7104 86.2802 18.7104 86.0402C18.7104 85.8002 18.7904 85.6202 18.9404 85.4802C19.0904 85.3402 19.3003 85.2702 19.5603 85.2702C19.7403 85.2702 19.9703 85.3302 20.2703 85.4402C20.5403 85.5402 20.6103 85.5502 20.6303 85.5502C20.7703 85.5502 20.9303 85.4702 21.1003 85.3302C21.2703 85.1802 21.4503 84.8802 21.6303 84.4302L22.1303 83.2102L19.6104 77.9502C19.5304 77.8002 19.4104 77.6002 19.2504 77.3702C19.1304 77.2002 19.0203 77.0802 18.9503 77.0202C18.8403 76.9502 18.6604 76.8802 18.4004 76.8202L18.3604 76.4802L21.6904 76.4302L21.7504 76.7702L21.5303 76.8302C21.3103 76.8302 21.1504 76.8802 21.0504 76.9702C20.9504 77.0602 20.9004 77.1702 20.9004 77.3002C20.9004 77.4902 20.9804 77.7602 21.1504 78.1102L22.8604 81.6502L24.3304 77.7702C24.4104 77.5702 24.4604 77.3702 24.4604 77.1702L24.4203 77.0002L24.2504 76.8802C24.1704 76.8502 24.0203 76.8302 23.8103 76.8302L23.7604 76.4902L26.1003 76.4402L26.1504 76.7802C25.9204 76.8502 25.7804 76.8902 25.6904 76.9502C25.5904 77.0102 25.4904 77.1202 25.3704 77.2802C25.3304 77.3502 25.2404 77.5402 25.1204 77.8602L22.2604 84.8702C21.9804 85.5602 21.6104 86.0802 21.1604 86.4302C20.7104 86.7802 20.2603 86.9602 19.8403 86.9602" fill="#222222"/>
<path d="M26.0701 76.4901V76.7701C25.8801 76.7901 25.7401 76.8301 25.6301 76.8901C25.5301 76.9501 25.4101 77.0701 25.2901 77.2401C25.2401 77.3101 25.1601 77.5101 25.0301 77.8301L22.1701 84.8401C21.8901 85.5201 21.5301 86.0301 21.0901 86.3801C20.6401 86.7301 20.2101 86.9001 19.8001 86.9001C19.5001 86.9001 19.2501 86.8101 19.0601 86.6401C18.8701 86.4701 18.7701 86.2701 18.7701 86.0401C18.7701 85.8101 18.8401 85.6501 18.9801 85.5201C19.1201 85.3901 19.3101 85.3201 19.5601 85.3201C19.7301 85.3201 19.9601 85.3801 20.2501 85.4901C20.4501 85.5701 20.5801 85.6101 20.6301 85.6101C20.7801 85.6101 20.9501 85.5301 21.1301 85.3701C21.3101 85.2101 21.4901 84.9001 21.6801 84.4501L22.1801 83.2301L19.6601 77.9301C19.5801 77.7701 19.4601 77.5801 19.2901 77.3401C19.1601 77.1601 19.0601 77.0401 18.9801 76.9801C18.8601 76.9001 18.6701 76.8301 18.4101 76.7701V76.4901H21.6801V76.7701H21.5201C21.2901 76.7701 21.1201 76.8201 21.0001 76.9201C20.8801 77.0201 20.8301 77.1401 20.8301 77.2901C20.8301 77.4901 20.9201 77.7701 21.0801 78.1201L22.7901 81.6601L24.3601 77.7801C24.4501 77.5701 24.4901 77.3601 24.4901 77.1601C24.4901 77.0701 24.4701 77.0001 24.4401 76.9501L24.2501 76.8101C24.1601 76.7801 24.0101 76.7601 23.7901 76.7601V76.4801H26.0701M26.1801 76.3801H23.6801V76.8801H23.7901C24.0501 76.8801 24.1601 76.9001 24.2101 76.9201L24.3501 77.0201L24.3801 77.1601C24.3801 77.3501 24.3401 77.5401 24.2601 77.7401L22.7801 81.3901L21.1801 78.0701C21.0201 77.7301 20.9401 77.4701 20.9401 77.2901C20.9401 77.1701 20.9801 77.0801 21.0801 77.0001C21.1701 76.9201 21.3301 76.8801 21.5301 76.8801H21.8001V76.3801H18.3101V76.8601L18.3901 76.8801C18.6401 76.9401 18.8101 77.0001 18.9201 77.0801C18.9701 77.1201 19.0601 77.2001 19.2101 77.4101C19.3701 77.6401 19.5001 77.8301 19.5701 77.9801L22.0701 83.2301L21.5901 84.4001C21.4101 84.8401 21.2401 85.1301 21.0701 85.2801C20.9101 85.4201 20.7601 85.4901 20.6401 85.4901C20.6401 85.4901 20.5701 85.4901 20.2901 85.3801C19.9801 85.2601 19.7501 85.2101 19.5601 85.2101C19.2901 85.2101 19.0701 85.2901 18.9101 85.4301C18.7501 85.5801 18.6601 85.7801 18.6601 86.0301C18.6601 86.2801 18.7701 86.5101 18.9901 86.7101C19.2001 86.9001 19.4801 87.0001 19.8101 87.0001C20.2501 87.0001 20.7001 86.8201 21.1701 86.4601C21.6301 86.1001 22.0101 85.5701 22.2901 84.8701L25.1501 77.8601C25.3001 77.4701 25.3701 77.3301 25.4001 77.2901C25.5101 77.1401 25.6101 77.0301 25.7001 76.9801C25.7901 76.9301 25.9201 76.8901 26.0901 76.8701H26.1901V76.3701L26.1801 76.3801Z" fill="#222222"/>
<path d="M28.3902 83.72C27.8902 83.72 27.4702 83.55 27.1502 83.2C26.8302 82.86 26.6602 82.41 26.6602 81.85C26.6602 81.5 26.7402 81.19 26.9002 80.93C27.1102 80.58 27.4902 80.24 28.0102 79.93C28.5302 79.62 29.4002 79.25 30.6102 78.81L30.5702 78.59C30.5702 77.91 30.4602 77.43 30.2502 77.18C30.0402 76.93 29.7302 76.81 29.3202 76.81C29.0102 76.81 28.7701 76.89 28.5901 77.06C28.4101 77.23 28.3202 77.41 28.3202 77.62V78.06C28.3302 78.31 28.2702 78.51 28.1402 78.64C28.0102 78.78 27.8401 78.85 27.6301 78.85C27.4201 78.85 27.2601 78.78 27.1301 78.63C27.0001 78.49 26.9402 78.29 26.9402 78.05C26.9402 77.6 27.1701 77.17 27.6301 76.8C28.0901 76.43 28.7402 76.23 29.5602 76.23C30.1902 76.23 30.7102 76.34 31.1202 76.55C31.4302 76.71 31.6602 76.97 31.8102 77.32C31.9102 77.55 31.9501 78 31.9501 78.69V81.08C31.9501 81.74 31.9602 82.15 31.9902 82.3C32.0202 82.47 32.0602 82.54 32.1002 82.57L32.2701 82.63L32.4602 82.58C32.5602 82.52 32.7702 82.33 33.0702 82.03L33.1602 81.94V82.5C32.5702 83.31 32.0002 83.71 31.4702 83.71C31.2002 83.71 30.9902 83.61 30.8302 83.43C30.6702 83.25 30.5901 82.94 30.5901 82.51C29.9601 83.11 29.5002 83.43 29.3102 83.52C29.0302 83.65 28.7202 83.72 28.4102 83.72M30.5802 79.41C29.8502 79.7 29.3802 79.91 29.1602 80.03C28.7702 80.25 28.4802 80.48 28.3102 80.72C28.1402 80.96 28.0602 81.21 28.0602 81.49C28.0602 81.84 28.1701 82.14 28.3801 82.37C28.5901 82.6 28.8302 82.72 29.1002 82.72C29.4702 82.72 29.9802 82.47 30.6002 81.97L30.5802 79.42V79.41Z" fill="#222222"/>
<path d="M29.5604 76.2902C30.1804 76.2902 30.7004 76.3902 31.0904 76.6002C31.3904 76.7602 31.6104 77.0102 31.7604 77.3402C31.8504 77.5602 31.9004 78.0102 31.9004 78.6902V81.0702C31.9004 81.7402 31.9104 82.1502 31.9404 82.3002C31.9704 82.4502 32.0104 82.5502 32.0704 82.6002L32.2704 82.6802L32.4804 82.6302C32.5904 82.5602 32.8004 82.3802 33.1004 82.0702V82.5002C32.5304 83.2702 31.9804 83.6502 31.4604 83.6502C31.2104 83.6502 31.0104 83.5602 30.8604 83.3902C30.7104 83.2202 30.6404 82.9202 30.6304 82.5002C29.9104 83.0602 29.4604 83.3802 29.2704 83.4702C28.9904 83.6002 28.7004 83.6602 28.3904 83.6602C27.9004 83.6602 27.5004 83.4902 27.1904 83.1602C26.8804 82.8302 26.7204 82.3902 26.7204 81.8502C26.7204 81.5102 26.8004 81.2102 26.9504 80.9602C27.1604 80.6102 27.5204 80.2902 28.0404 79.9802C28.5604 79.6702 29.4204 79.3002 30.6304 78.8602V78.5802C30.6304 77.8802 30.5204 77.4002 30.3004 77.1402C30.0804 76.8802 29.7504 76.7502 29.3304 76.7502C29.0104 76.7502 28.7504 76.8402 28.5604 77.0102C28.3704 77.1802 28.2704 77.3802 28.2704 77.6102V78.0502C28.2804 78.2802 28.2304 78.4702 28.1104 78.5902C27.9904 78.7202 27.8304 78.7802 27.6404 78.7802C27.4504 78.7802 27.2904 78.7102 27.1704 78.5802C27.0504 78.4502 26.9904 78.2702 26.9904 78.0402C26.9904 77.6002 27.2104 77.2002 27.6704 76.8302C28.1204 76.4602 28.7504 76.2802 29.5604 76.2802M29.1004 82.7702C29.4904 82.7702 30.0004 82.5102 30.6304 82.0002V79.3202C29.8604 79.6302 29.3604 79.8402 29.1404 79.9702C28.7404 80.1902 28.4504 80.4302 28.2704 80.6802C28.1004 80.9302 28.0104 81.1902 28.0104 81.4902C28.0104 81.8602 28.1204 82.1602 28.3404 82.4102C28.5604 82.6502 28.8104 82.7702 29.1004 82.7702ZM29.5604 76.1802C28.7304 76.1802 28.0604 76.3702 27.6004 76.7602C27.1304 77.1502 26.8904 77.5802 26.8904 78.0602C26.8904 78.3202 26.9604 78.5202 27.1004 78.6802C27.2404 78.8402 27.4204 78.9202 27.6504 78.9202C27.8804 78.9202 28.0604 78.8402 28.2004 78.6902C28.3404 78.5402 28.4104 78.3302 28.4104 78.0702V77.6202C28.4004 77.4302 28.4804 77.2602 28.6504 77.1102C28.8204 76.9602 29.0504 76.8802 29.3404 76.8802C29.7304 76.8802 30.0204 77.0002 30.2304 77.2302C30.4304 77.4702 30.5404 77.9302 30.5404 78.6002V78.8002C29.3704 79.2302 28.5204 79.6002 28.0104 79.9002C27.4804 80.2102 27.1004 80.5602 26.8804 80.9202C26.7204 81.1902 26.6304 81.5002 26.6304 81.8702C26.6304 82.4402 26.8004 82.9002 27.1304 83.2602C27.4604 83.6102 27.8904 83.7902 28.4104 83.7902C28.7404 83.7902 29.0504 83.7202 29.3404 83.5902C29.5204 83.5102 29.9104 83.2302 30.5504 82.7402C30.5804 83.0802 30.6604 83.3202 30.8004 83.4902C30.9704 83.6902 31.2004 83.7902 31.4804 83.7902C32.0404 83.7902 32.6204 83.3902 33.2104 82.6002L33.2304 82.5702V81.8402L33.0404 82.0302C32.6704 82.4002 32.5104 82.5302 32.4404 82.5702L32.2804 82.6102L32.1504 82.5602C32.1504 82.5602 32.0904 82.4902 32.0604 82.3202C32.0304 82.1802 32.0204 81.7702 32.0204 81.1102V78.7302C32.0204 78.0302 31.9704 77.5702 31.8704 77.3402C31.7204 76.9802 31.4804 76.7102 31.1504 76.5402C30.7404 76.3202 30.2104 76.2102 29.5704 76.2102M29.1004 82.6602C28.8404 82.6602 28.6204 82.5502 28.4204 82.3302C28.2204 82.1102 28.1204 81.8302 28.1204 81.4902C28.1204 81.2202 28.2004 80.9702 28.3604 80.7502C28.5204 80.5202 28.8004 80.2902 29.1904 80.0802C29.4004 79.9602 29.8404 79.7702 30.5204 79.4902V81.9502C29.9304 82.4202 29.4504 82.6602 29.1004 82.6602Z" fill="#222222"/>
<path d="M43.2503 83.5701L43.2003 83.2301C43.6503 83.1601 43.9203 83.0901 44.0603 82.9801C44.1903 82.8701 44.2603 82.7501 44.2603 82.5901C44.2603 82.3701 44.1603 82.0201 43.9603 81.5501L43.3303 80.0501L39.3603 80.0801L38.7103 81.6901C38.5403 82.0901 38.4503 82.3801 38.4503 82.5701C38.4503 82.7101 38.5203 82.8301 38.6603 82.9401C38.8003 83.0501 39.1203 83.1301 39.6103 83.1601L39.6603 83.5001L36.3303 83.5601L36.2803 83.2201C36.7503 83.0901 37.0203 83.0001 37.1403 82.8801C37.3903 82.6401 37.6803 82.1401 37.9903 81.4001L41.6503 72.8401L41.9703 72.8101L45.6403 81.4901C45.9303 82.1701 46.1903 82.6201 46.4203 82.8201C46.6503 83.0201 46.9703 83.1301 47.3803 83.1501L47.4303 83.4901V83.5501H43.2703L43.2503 83.5701ZM39.6403 79.4901L43.1603 79.4101L41.4003 75.4001L39.6403 79.4901Z" fill="#222222"/>
<path d="M41.9502 72.88L45.5702 81.53C45.8602 82.23 46.1302 82.68 46.3602 82.88C46.5902 83.08 46.9302 83.2 47.3502 83.23V83.51H43.2502V83.23C43.6602 83.21 43.9402 83.14 44.0902 83.02C44.2402 82.9 44.3102 82.76 44.3102 82.59C44.3102 82.37 44.2102 82.01 44.0002 81.52L43.3702 80.03H39.3402L38.6302 81.67C38.4602 82.07 38.3702 82.38 38.3702 82.57C38.3702 82.73 38.4502 82.87 38.6002 82.99C38.7502 83.11 39.0802 83.19 39.5802 83.22V83.5H36.3102V83.22C36.7402 83.14 37.0302 83.04 37.1502 82.92C37.4102 82.67 37.7002 82.18 38.0202 81.43L41.6802 72.87H41.9502M39.5902 79.47H43.1602L41.4002 75.27L39.5902 79.47ZM42.0202 72.77H41.6102L41.5802 72.84L37.9202 81.4C37.6102 82.13 37.3302 82.62 37.0802 82.86C37.0002 82.93 36.8002 83.04 36.2902 83.13H36.2002V83.63H39.6902V83.14H39.5902C39.0002 83.09 38.7602 82.99 38.6702 82.92C38.5502 82.82 38.4802 82.71 38.4802 82.59C38.4802 82.41 38.5602 82.12 38.7302 81.73L39.4102 80.16H43.2902L43.8902 81.59C44.0902 82.06 44.1902 82.41 44.1902 82.61C44.1902 82.75 44.1302 82.86 44.0102 82.96C43.9202 83.03 43.7202 83.12 43.2302 83.14H43.1302V83.64H47.4502V83.15H47.3502C46.9502 83.12 46.6402 83.01 46.4202 82.82C46.2002 82.63 45.9402 82.18 45.6602 81.51L42.0402 72.86L42.0102 72.79L42.0202 72.77ZM39.7502 79.36L41.3902 75.55L42.9902 79.36H39.7502Z" fill="#222222"/>
<path d="M51.0704 86.9602C50.0804 86.9602 49.2304 86.7302 48.5404 86.2802C48.1404 86.0102 47.9404 85.7302 47.9404 85.4402C47.9404 85.3102 47.9704 85.1802 48.0304 85.0502C48.1204 84.8602 48.3004 84.5902 48.5704 84.2502C48.6004 84.2002 48.8704 83.9302 49.3504 83.4202C49.0904 83.3502 48.9004 83.2002 48.7804 83.0702C48.6604 82.9402 48.6004 82.7802 48.6004 82.6102C48.6004 82.4202 48.6704 82.2002 48.8304 81.9502C48.9804 81.7102 49.3204 81.3602 49.8504 80.9202C49.4204 80.8002 49.0804 80.5002 48.8504 80.1102C48.6204 79.7302 48.5004 79.3002 48.5004 78.8402C48.5004 78.1302 48.7704 77.5202 49.3004 77.0102C49.8304 76.5002 50.5204 76.2402 51.3504 76.2402C52.0304 76.2402 52.6204 76.4102 53.1204 76.7402H54.5804C54.8804 76.7402 54.9504 76.7402 54.9804 76.7502L55.0904 76.8402C55.1204 76.8902 55.1404 76.9802 55.1404 77.1102C55.1404 77.2502 55.1304 77.3502 55.1004 77.4102L54.9904 77.5002C54.9904 77.5002 54.8804 77.5302 54.5804 77.5302H53.6704C54.0004 77.8202 54.1504 78.3002 54.1504 78.8902C54.1504 79.5602 53.8904 80.1402 53.3804 80.6102C52.8704 81.0802 52.1804 81.3202 51.3304 81.3202C50.9804 81.3202 50.6104 81.2702 50.2504 81.1602C50.0804 81.3402 49.9304 81.5102 49.8604 81.6402C49.7904 81.7802 49.7504 81.8902 49.7504 81.9902L49.8604 82.2002C49.9404 82.2702 50.0904 82.3302 50.3304 82.3602C50.4704 82.3802 50.8304 82.4002 51.4004 82.4102C52.4504 82.4402 53.1404 82.4702 53.4504 82.5202C53.9304 82.5902 54.3304 82.7702 54.6204 83.0602C54.9104 83.3602 55.0604 83.7302 55.0604 84.1602C55.0604 84.7502 54.7804 85.3102 54.2304 85.8202C53.4304 86.5702 52.3604 86.9602 51.0704 86.9602ZM49.8504 83.5702C49.6204 83.8202 49.4504 84.0502 49.3304 84.2702C49.2104 84.4902 49.1504 84.6902 49.1504 84.8702C49.1504 85.1002 49.2904 85.2902 49.5704 85.4702C50.0704 85.7802 50.8104 85.9402 51.7604 85.9402C52.7104 85.9402 53.3404 85.7802 53.7604 85.4602C54.1804 85.1502 54.3904 84.8102 54.3904 84.4602C54.3904 84.2202 54.2704 84.0502 54.0304 83.9402C53.7704 83.8302 53.2504 83.7702 52.4704 83.7502C51.3504 83.7202 50.4604 83.6602 49.8404 83.5802M51.2404 76.7102C50.8804 76.7102 50.5804 76.8502 50.3304 77.1402C50.0804 77.4302 49.9604 77.8902 49.9604 78.4902C49.9604 79.2802 50.1304 79.9002 50.4704 80.3302C50.7204 80.6502 51.0504 80.8202 51.4404 80.8202C51.8304 80.8202 52.1204 80.6802 52.3604 80.4002C52.6004 80.1202 52.7204 79.6702 52.7204 79.0602C52.7204 78.2602 52.5504 77.6302 52.2004 77.1802C51.9504 76.8502 51.6304 76.7002 51.2404 76.7002" fill="#222222"/>
<path d="M51.3701 76.2899C52.0401 76.2899 52.6201 76.4499 53.1101 76.7799H54.6001C54.8201 76.7799 54.9501 76.7799 54.9801 76.7999L55.0601 76.8699C55.0601 76.8699 55.1101 76.9999 55.1101 77.1199C55.1101 77.2499 55.1001 77.3399 55.0701 77.3999L54.9901 77.4599C54.9901 77.4599 54.8201 77.4799 54.6001 77.4799H53.6901C53.9801 77.8499 54.1201 78.3199 54.1201 78.8899C54.1201 79.5399 53.8701 80.0999 53.3701 80.5699C52.8701 81.0399 52.2001 81.2699 51.3501 81.2699C51.0001 81.2699 50.6501 81.2199 50.2901 81.1199C50.0601 81.3099 49.9101 81.4799 49.8301 81.6299C49.7501 81.7799 49.7101 81.8999 49.7101 81.9999L49.8401 82.2499C49.9201 82.3299 50.0901 82.3899 50.3301 82.4299C50.4701 82.4499 50.8301 82.4699 51.4001 82.4799C52.4501 82.5099 53.1401 82.5399 53.4501 82.5899C53.9301 82.6599 54.3101 82.8299 54.5901 83.1199C54.8701 83.4099 55.0201 83.7599 55.0201 84.1799C55.0201 84.7599 54.7501 85.2999 54.2101 85.7999C53.4101 86.5499 52.3701 86.9199 51.0901 86.9199C50.1001 86.9199 49.2701 86.6999 48.5901 86.2499C48.2101 85.9899 48.0201 85.7299 48.0201 85.4499C48.0201 85.3299 48.0501 85.1999 48.1001 85.0799C48.1901 84.8899 48.3601 84.6299 48.6401 84.2899C48.6801 84.2399 48.9401 83.9699 49.4201 83.4599C49.1501 83.2999 48.9701 83.1599 48.8601 83.0299C48.7501 82.9099 48.6901 82.7599 48.6901 82.5999C48.6901 82.4199 48.7601 82.2099 48.9101 81.9699C49.0601 81.7299 49.3901 81.3899 49.9201 80.9499C49.4901 80.7399 49.1601 80.4499 48.9301 80.0699C48.7001 79.6899 48.5801 79.2799 48.5801 78.8199C48.5801 78.1299 48.8401 77.5299 49.3701 77.0299C49.8901 76.5299 50.5601 76.2799 51.3801 76.2799M51.4301 80.8799C51.8201 80.8799 52.1401 80.7299 52.3901 80.4399C52.6401 80.1499 52.7701 79.6899 52.7701 79.0699C52.7701 78.2599 52.5901 77.6199 52.2401 77.1599C51.9801 76.8199 51.6401 76.6499 51.2401 76.6499C50.8601 76.6499 50.5501 76.7999 50.2901 77.0999C50.0301 77.3999 49.9101 77.8599 49.9101 78.4899C49.9101 79.2999 50.0801 79.9199 50.4301 80.3699C50.7001 80.7099 51.0301 80.8799 51.4401 80.8799M51.7601 85.9899C52.6801 85.9899 53.3601 85.8299 53.8001 85.4999C54.2401 85.1699 54.4501 84.8299 54.4501 84.4599C54.4501 84.1899 54.3201 83.9999 54.0601 83.8899C53.8001 83.7799 53.2701 83.7099 52.4801 83.6899C51.3301 83.6599 50.4501 83.5999 49.8301 83.5099C49.5901 83.7699 49.4101 84.0099 49.2901 84.2399C49.1701 84.4599 49.1101 84.6699 49.1101 84.8599C49.1101 85.1099 49.2601 85.3199 49.5501 85.4999C50.0601 85.8199 50.8001 85.9799 51.7701 85.9799M51.3701 76.1799C50.5301 76.1799 49.8301 76.4399 49.2801 76.9599C48.7401 77.4799 48.4601 78.1099 48.4601 78.8299C48.4601 79.2999 48.5801 79.7399 48.8201 80.1299C49.0301 80.4799 49.3301 80.7599 49.7101 80.9699C49.2401 81.3699 48.9401 81.6799 48.8001 81.9099C48.6501 82.1699 48.5701 82.3999 48.5701 82.5999C48.5701 82.7799 48.6401 82.9499 48.7601 83.0999C48.8601 83.2099 49.0201 83.3399 49.2301 83.4799C48.6601 84.0799 48.5601 84.1899 48.5301 84.2199C48.2501 84.5699 48.0701 84.8299 47.9801 85.0299C47.9201 85.1699 47.8901 85.3099 47.8901 85.4399C47.8901 85.7499 48.1001 86.0499 48.5101 86.3299C49.2001 86.7799 50.0701 87.0199 51.0701 87.0199C52.3801 87.0199 53.4501 86.6299 54.2601 85.8699C54.8201 85.3399 55.1101 84.7699 55.1101 84.1599C55.1101 83.7099 54.9601 83.3299 54.6501 83.0299C54.3501 82.7299 53.9501 82.5399 53.4501 82.4699C53.1301 82.4199 52.4601 82.3899 51.3901 82.3599C50.8201 82.3399 50.4701 82.3299 50.3301 82.3099C50.0501 82.2699 49.9401 82.2099 49.9001 82.1599L49.8101 81.9899C49.8101 81.9099 49.8501 81.7999 49.9201 81.6699C49.9901 81.5499 50.1201 81.3999 50.3101 81.2299C50.6601 81.3199 51.0101 81.3699 51.3501 81.3699C52.2201 81.3699 52.9201 81.1199 53.4401 80.6399C53.9601 80.1499 54.2301 79.5599 54.2301 78.8799C54.2301 78.3699 54.1201 77.9399 53.9001 77.5799H54.6101C54.9201 77.5799 55.0001 77.5699 55.0401 77.5499L55.1701 77.4399C55.2101 77.3599 55.2201 77.2599 55.2201 77.1099C55.2201 76.9699 55.2001 76.8699 55.1601 76.7999L55.0301 76.6899C55.0301 76.6899 54.9301 76.6599 54.6101 76.6599H53.1501C52.6501 76.3299 52.0501 76.1699 51.3801 76.1699M51.4301 80.7699C51.0501 80.7699 50.7501 80.6199 50.5001 80.3099C50.1701 79.8899 50.0001 79.2799 50.0001 78.4999C50.0001 77.8999 50.1201 77.4599 50.3601 77.1799C50.6001 76.8999 50.8801 76.7699 51.2301 76.7699C51.6101 76.7699 51.9101 76.9199 52.1501 77.2299C52.4901 77.6699 52.6601 78.2899 52.6601 79.0699C52.6601 79.6599 52.5401 80.0999 52.3101 80.3699C52.0801 80.6399 51.7901 80.7699 51.4301 80.7699ZM51.7601 85.8799C50.8201 85.8799 50.0901 85.7299 49.6001 85.4199C49.3401 85.2499 49.2101 85.0699 49.2101 84.8699C49.2101 84.6999 49.2701 84.5099 49.3801 84.2999C49.4901 84.0999 49.6601 83.8699 49.8701 83.6299C50.4901 83.7099 51.3701 83.7699 52.4801 83.7999C53.2501 83.8199 53.7701 83.8799 54.0201 83.9899C54.2401 84.0899 54.3401 84.2299 54.3401 84.4599C54.3401 84.7899 54.1301 85.1099 53.7301 85.4099C53.3101 85.7199 52.6501 85.8699 51.7601 85.8699" fill="#222222"/>
<path d="M55.5602 83.5702L55.5102 83.2402C55.9102 83.1802 56.1702 83.1302 56.3302 83.0302C56.4502 82.9602 56.5302 82.8402 56.5802 82.6702C56.6002 82.6102 56.6202 82.4402 56.6202 81.9402V79.2202C56.6202 78.4102 56.6002 77.9202 56.5702 77.7702C56.5402 77.6302 56.4902 77.5202 56.4002 77.4602C56.3202 77.3902 56.2202 77.3602 56.1002 77.3602C55.9502 77.3602 55.7702 77.4002 55.5802 77.4702L55.4302 77.1602L57.5802 76.2402H57.9202L57.9702 77.6802C58.5402 76.7202 59.1302 76.2402 59.7302 76.2402C60.0202 76.2402 60.2702 76.3302 60.4702 76.5102C60.6602 76.6902 60.7602 76.9102 60.7602 77.1402C60.7602 77.3502 60.6902 77.5402 60.5502 77.6802C60.4102 77.8302 60.2302 77.9002 60.0402 77.9002C59.8502 77.9002 59.6402 77.8102 59.4002 77.6202C59.1402 77.4102 59.0002 77.3702 58.9402 77.3702C58.8602 77.3702 58.7802 77.4202 58.6802 77.5102C58.4502 77.7202 58.2202 78.0602 57.9802 78.5302V81.8702C57.9802 82.2502 58.0302 82.5402 58.1302 82.7302C58.1902 82.8602 58.3002 82.9602 58.4602 83.0502C58.6202 83.1402 58.8602 83.1802 59.1602 83.1802L59.2102 83.5102V83.5702H55.5602Z" fill="#222222"/>
<path d="M59.7404 76.2902C60.0204 76.2902 60.2504 76.3802 60.4404 76.5502C60.6204 76.7202 60.7204 76.9202 60.7204 77.1402C60.7204 77.3402 60.6504 77.5102 60.5204 77.6502C60.3904 77.7902 60.2303 77.8602 60.0403 77.8602C59.8503 77.8602 59.6604 77.7702 59.4404 77.6002C59.2204 77.4202 59.0503 77.3402 58.9503 77.3402C58.8603 77.3402 58.7603 77.3902 58.6503 77.4902C58.4203 77.7002 58.1804 78.0502 57.9404 78.5302V81.9002C57.9404 82.2902 57.9903 82.5802 58.0903 82.7802C58.1603 82.9202 58.2704 83.0302 58.4404 83.1202C58.6104 83.2102 58.8503 83.2602 59.1703 83.2602V83.5402H55.5704V83.2602C55.9304 83.2602 56.1904 83.2002 56.3704 83.0902C56.5004 83.0102 56.5904 82.8802 56.6404 82.7002C56.6704 82.6102 56.6804 82.3702 56.6804 81.9602V79.2402C56.6804 78.4202 56.6603 77.9302 56.6303 77.7802C56.6003 77.6202 56.5403 77.5102 56.4503 77.4402C56.3603 77.3702 56.2504 77.3302 56.1204 77.3302C55.9604 77.3302 55.7804 77.3702 55.5804 77.4502L55.5004 77.1702L57.6203 76.3102H57.9404V77.8902C58.5304 76.8402 59.1304 76.3102 59.7504 76.3102M59.7404 76.1802C59.1504 76.1802 58.5803 76.6102 58.0403 77.4702V76.1802H57.5704L55.4503 77.0502L55.3604 77.0902L55.3904 77.1802L55.4704 77.4602L55.5004 77.5802L55.6104 77.5402C55.8004 77.4702 55.9604 77.4302 56.1104 77.4302C56.2204 77.4302 56.3003 77.4602 56.3803 77.5102C56.4503 77.5702 56.5003 77.6602 56.5203 77.7902C56.5403 77.8902 56.5704 78.2302 56.5704 79.2302V81.9502C56.5704 82.4702 56.5504 82.6202 56.5404 82.6602C56.5004 82.8102 56.4204 82.9202 56.3204 82.9902C56.1604 83.0902 55.9204 83.1402 55.5804 83.1402H55.4704V83.6302H59.2803V83.1402H59.1703C58.8703 83.1402 58.6504 83.1002 58.4904 83.0202C58.3404 82.9402 58.2403 82.8402 58.1803 82.7202C58.0903 82.5402 58.0403 82.2602 58.0403 81.8902V78.5502C58.2703 78.1002 58.5004 77.7702 58.7204 77.5702L58.9503 77.4502C58.9503 77.4502 59.1004 77.4702 59.3804 77.6902C59.6204 77.8802 59.8504 77.9802 60.0504 77.9802C60.2604 77.9802 60.4504 77.9002 60.6004 77.7402C60.7504 77.5802 60.8304 77.3802 60.8304 77.1602C60.8304 76.9102 60.7304 76.6802 60.5204 76.4902C60.3204 76.3002 60.0604 76.2002 59.7504 76.2002" fill="#222222"/>
<path d="M64.4501 83.79C63.3801 83.79 62.5101 83.36 61.8801 82.5C61.3501 81.78 61.0801 80.97 61.0801 80.08C61.0801 79.43 61.2401 78.78 61.5601 78.14C61.8801 77.5 62.3201 77.02 62.8401 76.71C63.3701 76.4 63.9301 76.25 64.5201 76.25C65.6001 76.25 66.4701 76.67 67.1201 77.48C67.6701 78.18 67.9501 78.99 67.9501 79.89C67.9501 80.52 67.8001 81.17 67.4901 81.82C67.1801 82.47 66.7601 82.97 66.2201 83.3C65.6801 83.63 65.0801 83.8 64.4201 83.8M64.3001 76.84C64.0401 76.84 63.7701 76.92 63.5101 77.07C63.2501 77.22 63.0301 77.5 62.8701 77.89C62.7001 78.28 62.6201 78.8 62.6201 79.43C62.6201 80.44 62.8201 81.32 63.2201 82.05C63.6101 82.77 64.1401 83.13 64.7801 83.13C65.2601 83.13 65.6501 82.93 65.9601 82.54C66.2701 82.14 66.4301 81.45 66.4301 80.47C66.4301 79.24 66.1601 78.26 65.6401 77.56C65.2901 77.09 64.8401 76.85 64.2901 76.85" fill="#222222"/>
<path d="M64.54 76.2902C65.6 76.2902 66.4601 76.6902 67.1001 77.5002C67.6501 78.1902 67.92 78.9802 67.92 79.8802C67.92 80.5102 67.77 81.1502 67.47 81.7902C67.17 82.4302 66.75 82.9202 66.22 83.2502C65.69 83.5802 65.1 83.7402 64.45 83.7402C63.39 83.7402 62.55 83.3202 61.93 82.4802C61.4 81.7702 61.14 80.9702 61.14 80.0902C61.14 79.4502 61.3 78.8002 61.62 78.1702C61.94 77.5302 62.3601 77.0602 62.8801 76.7602C63.4001 76.4502 63.95 76.3002 64.54 76.3002M64.78 83.1902C65.28 83.1902 65.68 82.9802 66.01 82.5802C66.33 82.1702 66.4901 81.4702 66.4901 80.4702C66.4901 79.2202 66.22 78.2402 65.68 77.5302C65.32 77.0402 64.85 76.7902 64.29 76.7902C64.02 76.7902 63.75 76.8702 63.47 77.0302C63.2 77.1902 62.98 77.4702 62.81 77.8802C62.64 78.2802 62.56 78.8002 62.56 79.4402C62.56 80.4602 62.76 81.3402 63.17 82.0902C63.58 82.8302 64.11 83.2002 64.78 83.2002M64.54 76.1802C63.94 76.1802 63.37 76.3402 62.83 76.6502C62.29 76.9602 61.85 77.4502 61.53 78.1102C61.2 78.7602 61.04 79.4202 61.04 80.0802C61.04 80.9802 61.3101 81.8102 61.8501 82.5402C62.4901 83.4102 63.3701 83.8502 64.4601 83.8502C65.1301 83.8502 65.74 83.6802 66.28 83.3402C66.82 83.0002 67.2601 82.5002 67.5701 81.8402C67.8801 81.1802 68.03 80.5302 68.03 79.8802C68.03 78.9602 67.75 78.1402 67.19 77.4402C66.53 76.6102 65.64 76.1902 64.54 76.1902M64.78 83.0802C64.15 83.0802 63.6601 82.7302 63.2701 82.0202C62.8701 81.3002 62.67 80.4302 62.67 79.4302C62.67 78.8102 62.75 78.3002 62.91 77.9202C63.07 77.5402 63.28 77.2702 63.53 77.1302C63.79 76.9802 64.04 76.9002 64.29 76.9002C64.82 76.9002 65.25 77.1302 65.59 77.5902C66.11 78.2802 66.37 79.2502 66.37 80.4702C66.37 81.4402 66.22 82.1202 65.91 82.5102C65.61 82.9002 65.2301 83.0802 64.7701 83.0802" fill="#222222"/>
<path d="M72.6501 83.5701L72.6001 83.2301L73.0501 83.1801C73.4701 83.1801 73.7701 83.0501 73.9501 82.7701C74.0501 82.6201 74.0901 82.2501 74.0901 81.6701V74.9501C74.0901 74.3101 74.0301 73.9101 73.9001 73.7701C73.7101 73.5601 73.4301 73.4501 73.0501 73.4501H72.6601L72.6101 73.1101L76.4801 73.0601C77.4101 73.0601 78.1601 73.1601 78.7001 73.3501C79.2401 73.5401 79.7101 73.8801 80.0801 74.3401C80.4501 74.8001 80.6401 75.3601 80.6401 75.9901C80.6401 76.8501 80.3501 77.5601 79.7801 78.1001C79.2101 78.6401 78.4001 78.9101 77.3701 78.9101C77.1201 78.9101 76.8401 78.8901 76.5501 78.8501C76.2601 78.8101 75.9401 78.7601 75.6101 78.6901L75.6801 81.6701C75.6801 82.3101 75.7501 82.7001 75.8801 82.8501C76.0601 83.0601 76.3501 83.1701 76.7201 83.1701H77.1201L77.1701 83.5101V83.5601H72.6601L72.6501 83.5701ZM75.6801 78.2101C75.9001 78.2101 76.1301 78.2501 76.3401 78.2701C76.5501 78.2901 76.7201 78.3101 76.8701 78.3101C77.3801 78.3101 77.8301 78.1101 78.2101 77.7101C78.5801 77.3101 78.7701 76.7801 78.7701 76.1501C78.7701 75.7101 78.6801 75.3001 78.5001 74.9201C78.3201 74.5501 78.0701 74.2601 77.7401 74.0801C77.4101 73.9001 77.0301 73.8001 76.6201 73.8001C76.3701 73.8001 76.0301 73.8501 75.6301 73.9401L75.6701 78.2101H75.6901H75.6801Z" fill="#222222"/>
<path d="M76.4601 73.1203C77.3901 73.1203 78.12 73.2203 78.66 73.4103C79.2 73.6003 79.6501 73.9203 80.0201 74.3803C80.3901 74.8403 80.5701 75.3703 80.5701 76.0003C80.5701 76.8503 80.29 77.5403 79.73 78.0703C79.17 78.6003 78.38 78.8703 77.36 78.8703C77.11 78.8703 76.84 78.8503 76.55 78.8203C76.26 78.7903 75.95 78.7303 75.61 78.6603V81.6903C75.61 82.3403 75.6801 82.7503 75.8201 82.9103C76.0101 83.1403 76.31 83.2503 76.7 83.2503H77.1001V83.5303H72.65V83.2503H73.04C73.48 83.2503 73.79 83.1103 73.98 82.8203C74.08 82.6603 74.1301 82.2903 74.1301 81.6903V74.9703C74.1301 74.3203 74.06 73.9103 73.92 73.7503C73.72 73.5303 73.42 73.4103 73.03 73.4103H72.64V73.1303H76.45M76.87 78.3603C77.4 78.3603 77.86 78.1503 78.25 77.7403C78.64 77.3303 78.83 76.8003 78.83 76.1403C78.83 75.6903 78.74 75.2703 78.55 74.8903C78.37 74.5003 78.1001 74.2203 77.7701 74.0203C77.4301 73.8303 77.05 73.7303 76.62 73.7303C76.36 73.7303 76.02 73.7803 75.62 73.8803V78.2003C75.89 78.2503 76.13 78.2903 76.34 78.3103C76.55 78.3403 76.7301 78.3503 76.8801 78.3503M76.4601 73.0103H72.54V73.5103H73.04C73.4 73.5103 73.6701 73.6103 73.8501 73.8103C73.9301 73.9003 74.03 74.1803 74.03 74.9603V81.6803C74.03 82.3903 73.96 82.6503 73.89 82.7503C73.72 83.0003 73.44 83.1303 73.04 83.1303H72.54V83.6303H77.2101V83.1303H76.7C76.34 83.1303 76.07 83.0303 75.9 82.8303C75.81 82.7303 75.7101 82.4603 75.7101 81.6803V78.7803C76.0001 78.8403 76.2701 78.8803 76.5201 78.9203C76.8101 78.9603 77.0901 78.9803 77.3501 78.9803C78.4001 78.9803 79.22 78.7003 79.8 78.1503C80.38 77.6003 80.67 76.8803 80.67 76.0003C80.67 75.3503 80.48 74.7903 80.09 74.3103C79.71 73.8403 79.24 73.5003 78.68 73.3103C78.14 73.1203 77.38 73.0203 76.44 73.0203M75.72 73.9703C76.08 73.8903 76.38 73.8503 76.62 73.8503C77.03 73.8503 77.4 73.9403 77.72 74.1203C78.04 74.3003 78.2801 74.5803 78.4601 74.9403C78.6401 75.3103 78.73 75.7203 78.73 76.1503C78.73 76.7703 78.55 77.2803 78.18 77.6703C77.81 78.0603 77.3901 78.2503 76.8801 78.2503C76.7401 78.2503 76.56 78.2403 76.36 78.2103C76.18 78.1903 75.9701 78.1503 75.7401 78.1103V73.9603L75.72 73.9703Z" fill="#222222"/>
<path d="M84.99 83.7899L82.4299 77.8299C82.3199 77.5599 82.2199 77.3699 82.1199 77.2499C82.0199 77.1399 81.9 77.0399 81.75 76.9599C81.67 76.9199 81.5 76.8799 81.25 76.8399L81.21 76.4999L84.57 76.4399L84.6199 76.7799L84.35 76.8399C84.17 76.8399 84.0299 76.8799 83.9299 76.9699C83.8399 77.0599 83.7899 77.1699 83.7899 77.3199C83.7899 77.4899 83.84 77.6999 83.95 77.9299L85.53 81.6899L87.1199 77.7899C87.2399 77.5099 87.2899 77.2999 87.2899 77.1599L87.24 77.0199L87.05 76.8799C86.97 76.8499 86.7999 76.8399 86.5399 76.8399L86.49 76.4999L88.84 76.4399L88.89 76.7799C88.59 76.8499 88.41 76.8999 88.32 76.9799C88.15 77.1299 87.99 77.3799 87.85 77.7299L85.34 83.7899H84.99Z" fill="#222222"/>
<path d="M88.8301 76.4901V76.7701C88.5601 76.7901 88.3801 76.8401 88.2801 76.9301C88.1001 77.0801 87.9401 77.3401 87.8001 77.7001L85.3101 83.7301H85.0001L82.4901 77.8001C82.3801 77.5201 82.2701 77.3301 82.1701 77.2101C82.0701 77.0901 81.9401 76.9901 81.7801 76.9101C81.6901 76.8601 81.5201 76.8201 81.2701 76.7801V76.5001H84.5801V76.7801H84.3701C84.1701 76.7801 84.0201 76.8301 83.9101 76.9301C83.8101 77.0301 83.7501 77.1601 83.7501 77.3201C83.7501 77.5001 83.8001 77.7101 83.9101 77.9601L85.5401 81.8401L87.1801 77.8101C87.3001 77.5201 87.3601 77.3101 87.3601 77.1601L87.3001 76.9801L87.0901 76.8201C87.0001 76.7901 86.8301 76.7801 86.5601 76.7801V76.5001H88.8501M88.9401 76.3801H86.4301V76.8801H86.5401C86.8601 76.8801 86.9801 76.9001 87.0301 76.9201L87.1901 77.0401L87.2301 77.1501C87.2301 77.2801 87.1701 77.4901 87.0601 77.7601L85.5201 81.5401L83.9901 77.9001C83.8901 77.6701 83.8401 77.4701 83.8401 77.3101C83.8401 77.1801 83.8801 77.0701 83.9601 77.0001C84.0401 76.9201 84.1701 76.8801 84.3401 76.8801H84.6601V76.3801H81.1401V76.8701H81.2301C81.5301 76.9301 81.6601 76.9801 81.7101 77.0001C81.8501 77.0801 81.9801 77.1701 82.0701 77.2801C82.1601 77.3901 82.2701 77.5801 82.3701 77.8401L84.8801 83.7701L84.9101 83.8401H85.3701L85.4001 83.7701L87.8901 77.7401C88.0301 77.4001 88.1801 77.1601 88.3401 77.0101C88.4001 76.9601 88.5301 76.9001 88.8301 76.8701H88.9301V76.3701L88.9401 76.3801Z" fill="#222222"/>
<path d="M91.5901 83.6899C91.3501 83.6899 91.1001 83.6199 90.8701 83.4899C90.6401 83.3599 90.4601 83.1599 90.3501 82.9099C90.2401 82.6599 90.1801 82.2799 90.1801 81.7699V77.0499L89.1201 77.0999L89.0601 76.7899C89.3701 76.6299 89.6501 76.4399 89.9401 76.1799C90.2301 75.9199 90.4901 75.5999 90.7201 75.2399C90.8301 75.0499 91.0001 74.6999 91.2101 74.1799L91.5001 74.1499L91.5501 76.5099L93.1401 76.4499L93.1901 77.0399L91.5001 77.0899L91.5501 81.5899C91.5501 82.0299 91.6101 82.3299 91.7301 82.4799C91.8501 82.6299 92.0001 82.6999 92.1901 82.6999C92.3501 82.6999 92.5001 82.6499 92.6501 82.5499C92.8001 82.4499 92.9201 82.2999 93.0001 82.1099L93.3501 82.0799C93.2201 82.6599 92.9601 83.0499 92.6201 83.3099C92.2901 83.5699 91.9301 83.6999 91.5801 83.6999" fill="#222222"/>
<path d="M91.5103 74.1901V76.5001H93.1503V77.0401H91.5103V81.6001C91.5103 82.0501 91.5703 82.3601 91.7003 82.5201C91.8303 82.6801 92.0003 82.7601 92.2003 82.7601C92.3703 82.7601 92.5303 82.7101 92.6903 82.6001C92.8503 82.5001 92.9703 82.3401 93.0603 82.1401H93.3603C93.1803 82.6401 92.9303 83.0201 92.6003 83.2701C92.2703 83.5201 91.9403 83.6501 91.5903 83.6501C91.3503 83.6501 91.1203 83.5801 90.9003 83.4501C90.6803 83.3201 90.5103 83.1301 90.4003 82.8901C90.2903 82.6501 90.2403 82.2701 90.2403 81.7701V77.0501H89.1303V76.8001C89.4103 76.6901 89.7003 76.5001 89.9903 76.2301C90.2803 75.9601 90.5503 75.6401 90.7803 75.2801C90.9003 75.0901 91.0603 74.7301 91.2703 74.2101H91.5103M91.6103 74.0801H91.1903L91.1603 74.1501C90.9503 74.6601 90.7903 75.0101 90.6803 75.2001C90.4603 75.5601 90.2003 75.8701 89.9103 76.1301C89.6303 76.3901 89.3503 76.5701 89.0803 76.6801L89.0103 76.7101V77.1501H90.1203V81.7701C90.1203 82.3001 90.1803 82.6801 90.2903 82.9401C90.4103 83.2001 90.5903 83.4101 90.8303 83.5501C91.0703 83.6901 91.3203 83.7601 91.5703 83.7601C91.9403 83.7601 92.3003 83.6201 92.6503 83.3601C92.9903 83.1001 93.2603 82.7001 93.4403 82.1801L93.4903 82.0301H92.9603L92.9303 82.1001C92.8503 82.2801 92.7403 82.4201 92.6003 82.5201C92.4603 82.6101 92.3203 82.6601 92.1703 82.6601C92.0003 82.6601 91.8603 82.5901 91.7503 82.4601C91.6703 82.3601 91.5803 82.1401 91.5803 81.6101V77.1601H93.2203V76.4101H91.5803V74.1001L91.6103 74.0801Z" fill="#222222"/>
<path d="M95.3004 83.7902C95.0504 83.7902 94.8404 83.7002 94.6604 83.5202C94.4904 83.3402 94.4004 83.1302 94.4004 82.8802C94.4004 82.6302 94.4904 82.4102 94.6604 82.2302C94.8404 82.0602 95.0504 81.9702 95.3004 81.9702C95.5504 81.9702 95.7704 82.0602 95.9404 82.2402C96.1104 82.4202 96.2004 82.6302 96.2004 82.8802C96.2004 83.1302 96.1104 83.3402 95.9404 83.5202C95.7604 83.7002 95.5504 83.7902 95.3004 83.7902Z" fill="#222222"/>
<path d="M95.3003 82.0299C95.5403 82.0299 95.7403 82.1099 95.9003 82.2799C96.0603 82.4499 96.1503 82.6499 96.1503 82.8799C96.1503 83.1099 96.0703 83.3199 95.9003 83.4799C95.7303 83.6499 95.5303 83.7299 95.3003 83.7299C95.0703 83.7299 94.8603 83.6499 94.7003 83.4799C94.5303 83.3099 94.4503 83.1099 94.4503 82.8799C94.4503 82.6499 94.5303 82.4399 94.7003 82.2699C94.8703 82.1099 95.0703 82.0299 95.3003 82.0299ZM95.3003 81.9199C95.0403 81.9199 94.8103 82.0099 94.6203 82.1999C94.4303 82.3799 94.3403 82.6099 94.3403 82.8799C94.3403 83.1499 94.4403 83.3699 94.6203 83.5599C94.8103 83.7499 95.0303 83.8399 95.3003 83.8399C95.5703 83.8399 95.7903 83.7399 95.9803 83.5599C96.1703 83.3699 96.2603 83.1399 96.2603 82.8799C96.2603 82.6199 96.1703 82.3899 95.9803 82.1999C95.8003 82.0099 95.5703 81.9199 95.3003 81.9199Z" fill="#222222"/>
<path d="M101.5 83.5701L101.45 83.2301L101.9 83.1701C102.32 83.1701 102.62 83.0301 102.8 82.7701C102.9 82.6201 102.95 82.2501 102.95 81.6701V74.9601C102.95 74.3301 102.88 73.9301 102.75 73.7801C102.56 73.5701 102.28 73.4601 101.9 73.4601H101.51L101.46 73.1201L106.22 73.0601L106.27 73.4001V73.4601H106.14C105.64 73.4601 105.28 73.5101 105.07 73.6101C104.86 73.7101 104.71 73.8401 104.64 73.9901C104.56 74.1401 104.52 74.5301 104.52 75.1401V81.6701C104.52 82.0801 104.56 82.3701 104.64 82.5201C104.69 82.6201 104.78 82.6901 104.9 82.7301C104.98 82.7601 105.25 82.8001 106.08 82.8001H106.84C107.63 82.8001 108.19 82.7401 108.5 82.6301C108.81 82.5101 109.1 82.3101 109.36 82.0201C109.62 81.7301 109.88 81.2601 110.15 80.6201L110.47 80.6401L109.61 83.5701H101.52H101.5Z" fill="#222222"/>
<path d="M106.21 73.1203V73.4003H106.14C105.63 73.4003 105.26 73.4503 105.05 73.5503C104.83 73.6603 104.68 73.7903 104.59 73.9603C104.51 74.1203 104.47 74.5203 104.47 75.1303V81.6603C104.47 82.0903 104.51 82.3803 104.59 82.5303C104.65 82.6403 104.75 82.7203 104.87 82.7703C105 82.8203 105.4 82.8503 106.07 82.8503H106.83C107.63 82.8503 108.19 82.7903 108.51 82.6703C108.83 82.5503 109.13 82.3403 109.39 82.0503C109.66 81.7503 109.92 81.2803 110.19 80.6403L110.44 80.6903L109.55 83.5103H101.5V83.2303H101.89C102.33 83.2303 102.64 83.0903 102.83 82.8003C102.94 82.6403 102.99 82.2603 102.99 81.6603V74.9503C102.99 74.3003 102.92 73.8903 102.78 73.7303C102.58 73.5003 102.28 73.3903 101.89 73.3903H101.5V73.1103H106.21M106.32 73.0103H101.39V73.5103H101.89C102.25 73.5103 102.52 73.6103 102.7 73.8103C102.79 73.9103 102.89 74.1903 102.89 74.9603V81.6703C102.89 82.3803 102.81 82.6503 102.75 82.7503C102.58 83.0103 102.3 83.1303 101.9 83.1303H101.4V83.6303H109.64L109.66 83.5503L110.55 80.7303L110.59 80.6203L110.47 80.6003L110.22 80.5503L110.13 80.5303L110.1 80.6103C109.84 81.2403 109.58 81.7103 109.32 81.9903C109.07 82.2703 108.78 82.4803 108.48 82.5903C108.17 82.7003 107.62 82.7603 106.84 82.7603H106.08C105.22 82.7603 104.99 82.7203 104.93 82.6903C104.82 82.6503 104.75 82.5903 104.7 82.5003C104.65 82.4103 104.59 82.1903 104.59 81.6803V75.1503C104.59 74.4003 104.65 74.1303 104.7 74.0303C104.77 73.8903 104.91 73.7703 105.11 73.6703C105.31 73.5803 105.66 73.5303 106.15 73.5303H106.33V73.4203V73.0303L106.32 73.0103Z" fill="#222222"/>
<path d="M113.4 83.6899C113.16 83.6899 112.91 83.6199 112.68 83.4899C112.45 83.3599 112.27 83.1599 112.16 82.9099C112.05 82.6599 111.99 82.2799 111.99 81.7699V77.0499L110.93 77.0999L110.87 76.7899C111.18 76.6299 111.46 76.4399 111.75 76.1799C112.04 75.9199 112.3 75.5999 112.53 75.2399C112.64 75.0499 112.81 74.6999 113.02 74.1799L113.31 74.1499L113.36 76.5099L114.95 76.4499L115 77.0399L113.31 77.0899L113.36 81.5899C113.36 82.0299 113.42 82.3299 113.54 82.4799C113.66 82.6299 113.81 82.6999 114 82.6999C114.16 82.6999 114.31 82.6499 114.46 82.5499C114.61 82.4499 114.73 82.2999 114.81 82.1099L115.16 82.0799C115.03 82.6599 114.77 83.0499 114.43 83.3099C114.1 83.5699 113.74 83.6999 113.39 83.6999" fill="#222222"/>
<path d="M113.31 74.1901V76.5001H114.95V77.0401H113.31V81.6001C113.31 82.0501 113.37 82.3601 113.5 82.5201C113.63 82.6801 113.8 82.7601 114 82.7601C114.17 82.7601 114.33 82.7101 114.49 82.6001C114.65 82.5001 114.77 82.3401 114.86 82.1401H115.16C114.98 82.6401 114.73 83.0201 114.4 83.2701C114.07 83.5201 113.74 83.6501 113.39 83.6501C113.15 83.6501 112.92 83.5801 112.7 83.4501C112.48 83.3201 112.31 83.1301 112.2 82.8901C112.09 82.6501 112.04 82.2701 112.04 81.7701V77.0501H110.93V76.8001C111.21 76.6901 111.5 76.5001 111.79 76.2301C112.08 75.9601 112.35 75.6401 112.58 75.2801C112.7 75.0901 112.86 74.7301 113.07 74.2101H113.31M113.42 74.0801H113L112.97 74.1501C112.76 74.6601 112.6 75.0101 112.49 75.2001C112.27 75.5601 112.01 75.8701 111.72 76.1301C111.44 76.3901 111.16 76.5701 110.89 76.6801L110.82 76.7101V77.1501H111.93V81.7701C111.93 82.3001 111.99 82.6801 112.1 82.9401C112.22 83.2001 112.4 83.4101 112.64 83.5501C112.88 83.6901 113.13 83.7601 113.38 83.7601C113.75 83.7601 114.11 83.6201 114.46 83.3601C114.8 83.1001 115.07 82.7001 115.25 82.1801L115.3 82.0301H114.77L114.74 82.1001C114.66 82.2801 114.55 82.4201 114.41 82.5201C114.27 82.6101 114.13 82.6601 113.98 82.6601C113.81 82.6601 113.67 82.5901 113.56 82.4601C113.48 82.3601 113.39 82.1401 113.39 81.6101V77.1601H115.03V76.4101H113.39V74.1001L113.42 74.0801Z" fill="#222222"/>
<path d="M120.6 83.7901L120.55 82.8601C120.23 83.1801 119.92 83.4101 119.62 83.5501C119.29 83.7101 118.92 83.7901 118.54 83.7901C117.76 83.7901 117.07 83.4601 116.49 82.8101C115.91 82.1601 115.62 81.3201 115.62 80.3001C115.62 79.2801 115.94 78.3401 116.58 77.5001C117.22 76.6501 118.06 76.2301 119.07 76.2301C119.65 76.2301 120.15 76.4101 120.55 76.7501V75.5801C120.55 74.7801 120.53 74.2901 120.49 74.1101C120.45 73.9401 120.4 73.8201 120.33 73.7601C120.26 73.7001 120.17 73.6701 120.06 73.6701C119.93 73.6701 119.76 73.7101 119.55 73.7901L119.38 73.4901L121.5 72.5601H121.87L121.92 80.7301C121.92 81.5501 121.94 82.0501 121.98 82.2201C122.02 82.3901 122.07 82.5101 122.15 82.5701C122.23 82.6301 122.31 82.6601 122.41 82.6601C122.54 82.6601 122.72 82.6201 122.94 82.5301L123.1 82.8301L120.97 83.7701H120.61L120.6 83.7901ZM118.97 76.8101C118.54 76.8101 118.15 77.0101 117.81 77.4001C117.36 77.9201 117.13 78.6901 117.13 79.7001C117.13 80.7101 117.35 81.5001 117.79 82.0401C118.23 82.5701 118.72 82.8401 119.25 82.8401C119.7 82.8401 120.14 82.6101 120.56 82.1601V78.5801C120.52 78.2501 120.43 77.9301 120.28 77.6501C120.13 77.3701 119.93 77.1601 119.69 77.0201C119.45 76.8801 119.21 76.8101 118.98 76.8101" fill="#222222"/>
<path d="M121.86 72.6102V80.7302C121.86 81.5502 121.88 82.0502 121.92 82.2402C121.96 82.4202 122.02 82.5502 122.1 82.6202C122.18 82.6902 122.28 82.7302 122.39 82.7302C122.53 82.7302 122.71 82.6902 122.94 82.6002L123.02 82.8702L120.94 83.7402H120.59V82.7402C120.25 83.1002 119.91 83.3502 119.58 83.5102C119.25 83.6702 118.9 83.7402 118.52 83.7402C117.75 83.7402 117.08 83.4202 116.51 82.7802C115.94 82.1402 115.65 81.3102 115.65 80.3102C115.65 79.3102 115.97 78.3802 116.6 77.5502C117.23 76.7202 118.05 76.3002 119.05 76.3002C119.67 76.3002 120.18 76.5002 120.58 76.8902V75.5902C120.58 74.7902 120.56 74.2902 120.52 74.1102C120.48 73.9302 120.42 73.8002 120.34 73.7302C120.26 73.6602 120.16 73.6302 120.03 73.6302C119.9 73.6302 119.72 73.6702 119.5 73.7502L119.4 73.4802L121.49 72.6202H121.84M119.25 82.8902C119.71 82.8902 120.16 82.6602 120.6 82.1902V78.5702C120.57 78.2202 120.48 77.9002 120.32 77.6202C120.17 77.3302 119.96 77.1202 119.71 76.9702C119.46 76.8202 119.21 76.7502 118.97 76.7502C118.52 76.7502 118.12 76.9502 117.77 77.3602C117.3 77.8902 117.07 78.6702 117.07 79.6902C117.07 80.7102 117.29 81.5102 117.75 82.0602C118.2 82.6102 118.7 82.8802 119.25 82.8802M121.97 72.5002H121.48L119.39 73.3702L119.29 73.4102L119.33 73.5102L119.43 73.7802L119.47 73.8802L119.57 73.8402C119.78 73.7602 119.94 73.7202 120.06 73.7202C120.16 73.7202 120.24 73.7402 120.3 73.8002C120.34 73.8302 120.4 73.9202 120.44 74.1102C120.48 74.2902 120.49 74.7802 120.49 75.5702V76.6302C120.1 76.3202 119.62 76.1702 119.06 76.1702C118.03 76.1702 117.18 76.6102 116.53 77.4702C115.88 78.3202 115.56 79.2702 115.56 80.3002C115.56 81.3302 115.86 82.1902 116.45 82.8402C117.04 83.5002 117.74 83.8402 118.54 83.8402C118.93 83.8402 119.3 83.7602 119.64 83.6002C119.92 83.4702 120.2 83.2702 120.49 82.9902V83.8402H120.99L123.08 82.9602L123.17 82.9202L123.14 82.8202L123.06 82.5502L123.02 82.4402L122.91 82.4802C122.69 82.5602 122.52 82.6002 122.4 82.6002L122.18 82.5202C122.11 82.4602 122.06 82.3602 122.03 82.2002C121.99 82.0302 121.97 81.5302 121.97 80.7202V72.4902V72.5002ZM119.25 82.7802C118.74 82.7802 118.26 82.5202 117.83 81.9902C117.4 81.4602 117.18 80.6902 117.18 79.6902C117.18 78.6902 117.4 77.9402 117.85 77.4302C118.18 77.0502 118.55 76.8602 118.97 76.8602C119.19 76.8602 119.42 76.9302 119.66 77.0702C119.89 77.2002 120.09 77.4102 120.23 77.6702C120.38 77.9402 120.46 78.2502 120.49 78.5802V82.1502C120.09 82.5702 119.67 82.7802 119.25 82.7802Z" fill="#222222"/>
<path d="M124.96 83.7902C124.71 83.7902 124.5 83.7002 124.32 83.5202C124.15 83.3402 124.06 83.1302 124.06 82.8802C124.06 82.6302 124.15 82.4102 124.32 82.2302C124.5 82.0602 124.71 81.9702 124.96 81.9702C125.21 81.9702 125.43 82.0602 125.61 82.2402C125.78 82.4202 125.87 82.6302 125.87 82.8802C125.87 83.1302 125.78 83.3402 125.61 83.5202C125.43 83.7002 125.22 83.7902 124.97 83.7902" fill="#222222"/>
<path d="M124.96 82.0299C125.2 82.0299 125.4 82.1099 125.57 82.2799C125.74 82.4499 125.81 82.6499 125.81 82.8799C125.81 83.1099 125.73 83.3199 125.56 83.4799C125.39 83.6499 125.19 83.7299 124.96 83.7299C124.73 83.7299 124.52 83.6499 124.36 83.4799C124.19 83.3099 124.11 83.1099 124.11 82.8799C124.11 82.6499 124.19 82.4399 124.36 82.2699C124.53 82.1099 124.73 82.0299 124.96 82.0299ZM124.96 81.9199C124.7 81.9199 124.47 82.0099 124.28 82.1999C124.09 82.3799 124 82.6099 124 82.8799C124 83.1499 124.09 83.3699 124.28 83.5599C124.47 83.7499 124.69 83.8399 124.96 83.8399C125.23 83.8399 125.45 83.7399 125.64 83.5599C125.83 83.3699 125.92 83.1399 125.92 82.8799C125.92 82.6199 125.83 82.3899 125.64 82.1999C125.46 82.0099 125.23 81.9199 124.96 81.9199Z" fill="#222222"/>
<path d="M12.3502 42.5003C13.3202 41.8403 14.5202 41.3703 15.9502 41.0703C15.6202 39.9003 15.0902 38.7902 14.2202 37.5202C13.7802 36.8802 13.1902 36.1903 12.5002 35.4303C10.6502 36.0803 9.0102 36.9903 7.6102 38.1803C4.5102 40.7903 2.9502 44.3003 2.9502 48.7103C2.9502 51.5103 3.6202 53.9103 4.9502 55.8903C6.2802 57.8703 7.83019 58.8603 9.59019 58.8603C10.6302 58.8603 11.4902 58.5402 12.1602 57.9002C12.8302 57.2602 13.1702 56.4703 13.1702 55.5303C13.1702 54.8303 12.5902 53.6702 11.4402 52.0602C10.2902 50.4502 9.7102 48.9603 9.7102 47.6003C9.7102 45.4003 10.5902 43.7003 12.3502 42.5103M35.5702 40.0303C31.5302 36.1803 26.4002 34.2603 20.1902 34.2603C18.8102 34.2603 17.5102 34.3503 16.2802 34.5303C17.8102 36.6203 18.6102 38.7002 18.9402 40.7402C19.2402 40.7302 19.5402 40.7203 19.8502 40.7203C24.3702 40.7203 27.9702 42.0203 30.6402 44.6203C33.3002 47.2203 34.6302 50.7403 34.6302 55.1603C34.6302 59.0503 33.6002 62.1603 31.5502 64.5003C29.5002 66.8403 26.7702 68.0102 23.3602 68.0102H21.1402V50.8603C21.1402 49.9803 21.3502 49.1003 21.7802 48.2303C22.2102 47.3603 22.4302 46.6903 22.4302 46.2303C22.4302 45.4103 22.1902 44.8203 21.7102 44.4703C21.2302 44.1203 20.4102 43.9403 19.2502 43.9403H19.1202C19.0502 45.4903 18.7902 46.9903 18.4602 48.4103C18.3702 48.8103 18.0202 49.0902 17.6102 49.0902H17.5402C17.1102 49.0602 16.7702 48.7103 16.7402 48.2803C16.6902 47.6203 16.6502 47.0002 16.6102 46.4202C16.5502 45.5102 16.5002 44.6903 16.4302 43.9403H15.4302C14.2102 43.9403 13.3602 44.1303 12.8802 44.5003C12.4002 44.8703 12.1602 45.4903 12.1602 46.3503C12.1602 47.1503 12.5502 47.8502 13.3302 48.4502C13.6502 48.7102 13.8602 48.9103 13.9602 49.0503C14.1802 49.3503 14.3402 49.7203 14.4302 50.1603C14.5202 50.6003 14.5602 51.1702 14.5602 51.8702V64.8203C14.5602 65.9403 14.4802 66.7403 14.3102 67.2103C14.1402 67.6803 13.8302 67.9903 13.3902 68.1303C13.2702 68.1703 13.0802 68.2302 12.8202 68.3102C11.1202 68.8502 10.2702 69.7703 10.2702 71.0703C10.2702 72.1103 10.5302 72.8602 11.0502 73.3102C11.5702 73.7602 12.4402 73.9903 13.6602 73.9903H21.9502C28.1602 73.9903 32.9902 72.2702 36.4502 68.8402C39.9002 65.4102 41.6302 60.6303 41.6302 54.5303C41.6302 48.4303 39.6102 43.8602 35.5602 40.0202" fill="#059848"/>
<path d="M53.3 37.14V47.77C53.3 48.03 53.33 48.2 53.39 48.28C53.45 48.36 53.56 48.4 53.72 48.4C53.84 48.4 54.08 48.2 54.44 47.8C56.12 45.98 58.03 45.07 60.18 45.07C62.33 45.07 63.75 45.64 64.69 46.78C65.63 47.92 66.1 49.75 66.1 52.28V59.28H66.46C67.14 59.28 67.7 59.51 68.14 59.96C68.58 60.41 68.8 60.99 68.8 61.69C68.8 62.55 68.23 63.51 67.09 64.57L66.94 64.69L62.94 68.38C62.5 68.78 62.15 69.04 61.89 69.15C61.63 69.26 61.33 69.31 60.99 69.31C60.33 69.31 59.73 69.04 59.2 68.48C58.67 67.93 58.4 67.3 58.4 66.6C58.4 66.2 58.7 65.51 59.32 64.53C59.93 63.55 60.24 62.38 60.24 61.02V55.82C60.24 54.26 60.03 53.2 59.61 52.65C59.19 52.1 58.44 51.82 57.36 51.82C55.92 51.82 54.88 52.38 54.25 53.49C53.62 54.6 53.3 56.43 53.3 58.97C53.3 60.23 53.37 61.15 53.51 61.73C53.65 62.31 53.89 62.7 54.23 62.9C54.39 63 54.65 63.14 55.01 63.32C56.15 63.88 56.72 64.62 56.72 65.54C56.72 66.4 56.5 67.03 56.06 67.42C55.62 67.81 54.9 68.01 53.9 68.01H47.14C46 68.01 45.15 67.82 44.59 67.45C44.03 67.08 43.75 66.5 43.75 65.72C43.75 64.64 44.4 63.82 45.7 63.26C46.1 63.08 46.4 62.94 46.6 62.84C46.9 62.66 47.11 62.37 47.25 61.97C47.38 61.57 47.44 60.92 47.44 60.02V42.24H46.66C45.82 42.24 45.19 42.06 44.77 41.7C44.35 41.34 44.14 40.82 44.14 40.14C44.14 39.7 44.23 39.31 44.41 38.97C44.59 38.63 44.91 38.29 45.37 37.95L48.91 35.16C49.43 34.78 49.85 34.54 50.16 34.42C50.47 34.31 50.82 34.25 51.2 34.25C51.96 34.25 52.5 34.45 52.82 34.85C53.14 35.25 53.3 36.01 53.3 37.13" fill="#615E5D"/>
<path d="M80.21 48.2903V60.0402C80.21 61.0002 80.26 61.6502 80.35 61.9802C80.44 62.3102 80.59 62.5703 80.79 62.7503C80.93 62.8703 81.23 63.0402 81.69 63.2602C82.93 63.8002 83.55 64.6303 83.55 65.7503C83.55 66.5503 83.3 67.1303 82.81 67.4903C82.32 67.8503 81.54 68.0303 80.48 68.0303H73.81C72.73 68.0303 71.95 67.8503 71.47 67.4703C70.99 67.0903 70.75 66.5002 70.75 65.6802C70.75 64.6402 71.36 63.8103 72.58 63.1903C72.92 63.0303 73.17 62.9003 73.33 62.8003C73.61 62.6203 73.8 62.3503 73.9 62.0003C74 61.6503 74.06 60.9903 74.08 60.0303V53.3903H73.57C72.75 53.3903 72.12 53.2103 71.69 52.8503C71.26 52.4903 71.04 51.9702 71.04 51.2902C71.04 50.8302 71.14 50.4203 71.33 50.0703C71.52 49.7203 71.84 49.3603 72.28 49.0003L75.79 46.3003C76.21 45.9603 76.6 45.7203 76.95 45.5803C77.3 45.4403 77.69 45.3703 78.14 45.3703C78.88 45.3703 79.41 45.5903 79.73 46.0303C80.05 46.4703 80.21 47.2203 80.21 48.2803M77.09 34.2603C78.29 34.2603 79.3 34.7203 80.11 35.6403C80.92 36.5603 81.33 37.6903 81.33 39.0303C81.33 40.3703 80.93 41.5702 80.14 42.4502C79.35 43.3302 78.33 43.7702 77.09 43.7702C75.85 43.7702 74.82 43.3202 74.01 42.4202C73.2 41.5202 72.79 40.3903 72.79 39.0303C72.79 37.6703 73.19 36.5103 74.01 35.6103C74.82 34.7103 75.85 34.2603 77.09 34.2603Z" fill="#615E5D"/>
<path d="M95.1702 55.2303V58.8703C95.1702 60.0903 95.2602 61.0003 95.4402 61.6003C95.6202 62.2003 95.9002 62.6003 96.2802 62.8003C96.4802 62.9003 96.7802 63.0403 97.1802 63.2203C98.5202 63.8003 99.1902 64.5803 99.1902 65.5603C99.1902 66.4003 98.9202 67.0203 98.3802 67.4203C97.8402 67.8203 97.0202 68.0203 95.9202 68.0203H89.0402C87.8802 68.0203 87.0302 67.8403 86.5002 67.4803C85.9702 67.1203 85.7002 66.5403 85.7002 65.7403C85.7002 64.6403 86.3502 63.8103 87.6502 63.2503C88.0102 63.0903 88.2802 62.9603 88.4602 62.8603C88.7802 62.6603 89.0002 62.3603 89.1402 61.9703C89.2702 61.5803 89.3302 60.9303 89.3302 60.0303V53.0603H88.5202C87.7002 53.0603 87.0702 52.8903 86.6402 52.5303C86.2102 52.1803 85.9902 51.6603 85.9902 50.9803C85.9902 50.5203 86.0902 50.1203 86.2802 49.7803C86.4702 49.4403 86.7902 49.1003 87.2302 48.7603L90.7402 46.0003C91.1602 45.6603 91.5502 45.4203 91.9002 45.2803C92.2502 45.1403 92.6502 45.0703 93.0902 45.0703C93.9502 45.0703 94.5502 45.4203 94.8802 46.1203C95.2102 46.8203 95.4602 47.1703 95.6202 47.1703C95.6402 47.1703 96.0302 46.8203 96.8102 46.1203C97.5802 45.4203 98.5202 45.0703 99.6202 45.0703C101 45.0703 102.1 45.5503 102.92 46.5103C103.74 47.4703 104.15 48.7503 104.15 50.3603C104.15 51.8003 103.82 52.9103 103.14 53.6903C102.47 54.4703 101.51 54.8603 100.27 54.8603C99.6102 54.8603 99.0802 54.6803 98.6802 54.3203C98.2802 53.9603 98.0802 53.4803 98.0802 52.8803L98.1102 52.7003L98.1402 52.5203C98.1402 52.1003 98.0402 51.7703 97.8402 51.5303C97.6402 51.2903 97.3702 51.1703 97.0302 51.1703C96.4302 51.1703 95.9702 51.5203 95.6502 52.2203C95.3302 52.9203 95.1702 53.9203 95.1702 55.2203" fill="#615E5D"/>
<path d="M120.86 58.7403H111.52C111.76 60.0003 112.33 61.0203 113.25 61.8003C114.16 62.5803 115.23 62.9703 116.45 62.9703C117.59 62.9703 118.78 62.5103 120.01 61.5903C121.24 60.6703 122.13 60.2103 122.67 60.2103C123.37 60.2103 123.97 60.5003 124.46 61.0703C124.95 61.6403 125.2 62.3603 125.2 63.2203C125.2 64.6403 124.35 65.9203 122.66 67.0703C120.97 68.2103 118.9 68.7803 116.46 68.7803C113.14 68.7803 110.44 67.7003 108.36 65.5503C106.29 63.4003 105.25 60.6203 105.25 57.2103C105.25 53.5203 106.25 50.5803 108.24 48.3803C110.23 46.1803 112.87 45.0703 116.16 45.0703C118.98 45.0703 121.34 45.9603 123.22 47.7403C125.1 49.5203 126.04 51.7103 126.04 54.2903C126.04 55.9503 125.68 57.1103 124.96 57.7603C124.24 58.4103 122.88 58.7403 120.87 58.7403M116.68 54.3603C117.88 54.3603 118.71 54.2503 119.16 54.0103C119.61 53.7803 119.84 53.3603 119.84 52.7603C119.84 52.0203 119.5 51.4103 118.82 50.9403C118.14 50.4703 117.25 50.2403 116.15 50.2403C114.97 50.2403 113.93 50.6303 113.03 51.4103C112.13 52.1903 111.61 53.1703 111.47 54.3503H116.7L116.68 54.3603Z" fill="#615E5D"/>
<path d="M150.48 52.2803V59.2803H150.84C151.52 59.2803 152.08 59.5003 152.52 59.9603C152.96 60.4103 153.18 60.9903 153.18 61.6903C153.18 62.5503 152.61 63.5103 151.47 64.5703L151.32 64.6903L147.32 68.3903C147 68.7303 146.68 68.9703 146.37 69.1103C146.06 69.2503 145.72 69.3203 145.36 69.3203C144.7 69.3203 144.1 69.0403 143.57 68.4903C143.04 67.9403 142.78 67.3103 142.78 66.6103C142.78 66.2303 143.09 65.5303 143.7 64.5203C144.31 63.5103 144.62 62.3403 144.62 61.0203V55.8203C144.62 54.2803 144.41 53.2303 143.99 52.6703C143.57 52.1103 142.82 51.8303 141.74 51.8303C140.44 51.8303 139.48 52.4203 138.86 53.6003C138.24 54.7803 137.93 56.6103 137.93 59.1003C137.93 60.2403 138.01 61.1103 138.17 61.7103C138.33 62.3103 138.58 62.7103 138.92 62.9103C139.1 63.0303 139.37 63.1803 139.73 63.3603C140.83 63.9003 141.38 64.6303 141.38 65.5503C141.38 66.4103 141.17 67.0403 140.73 67.4303C140.3 67.8203 139.58 68.0203 138.58 68.0203H131.82C130.66 68.0203 129.82 67.8403 129.3 67.4803C128.78 67.1203 128.52 66.5403 128.52 65.7403C128.52 64.6803 129.13 63.8703 130.35 63.3103C130.75 63.1303 131.06 62.9803 131.28 62.8603C131.58 62.7003 131.79 62.4103 131.93 62.0003C132.06 61.5903 132.13 60.9303 132.13 60.0303V53.0603H131.35C130.53 53.0603 129.9 52.8903 129.47 52.5303C129.04 52.1803 128.82 51.6703 128.82 50.9803C128.82 50.5203 128.92 50.1203 129.11 49.7803C129.3 49.4403 129.62 49.1003 130.06 48.7603L133.57 46.0003C134.05 45.6403 134.46 45.3903 134.79 45.2603C135.12 45.1303 135.49 45.0703 135.89 45.0703C136.51 45.0703 137.01 45.2603 137.38 45.6603C137.75 46.0503 137.94 46.5603 137.94 47.1803V47.7803C137.94 48.0203 137.98 48.1803 138.05 48.2803C138.12 48.3703 138.23 48.4203 138.37 48.4203C138.51 48.4203 138.78 48.1903 139.18 47.7303C140.68 45.9703 142.47 45.0903 144.53 45.0903C146.59 45.0903 148.1 45.6603 149.07 46.8003C150.03 47.9403 150.51 49.7703 150.51 52.3003" fill="#615E5D"/>
<path d="M176.8 37.14V60.09C176.8 60.87 176.84 61.42 176.9 61.74C176.97 62.06 177.1 62.33 177.28 62.55C177.4 62.69 177.65 62.88 178.03 63.12C178.93 63.68 179.38 64.47 179.38 65.49C179.38 66.29 179.15 66.91 178.69 67.35C178.23 67.79 177.58 68.01 176.74 68.01H173.65C172.59 68.01 171.84 67.74 171.41 67.2C170.98 66.66 170.76 65.64 170.76 64.14V57.26C170.76 55.24 170.38 53.71 169.6 52.66C168.83 51.62 167.7 51.1 166.22 51.1C164.74 51.1 163.65 51.61 162.83 52.62C162.01 53.63 161.6 55.03 161.6 56.81C161.6 58.31 161.97 59.56 162.71 60.55C163.45 61.54 164.37 62.04 165.47 62.04C165.71 62.04 166.02 61.99 166.4 61.89C166.78 61.79 167.04 61.74 167.18 61.74C167.84 61.74 168.37 61.96 168.76 62.4C169.15 62.84 169.35 63.44 169.35 64.2C169.35 65.5 168.84 66.58 167.82 67.43C166.8 68.28 165.49 68.71 163.88 68.71C161.38 68.71 159.33 67.61 157.75 65.42C156.17 63.23 155.38 60.36 155.38 56.81C155.38 53.26 156.24 50.51 157.96 48.31C159.68 46.11 161.84 45.01 164.42 45.01C165.84 45.01 167.19 45.38 168.48 46.12C169.76 46.86 170.42 47.23 170.46 47.23C170.66 47.23 170.79 47.19 170.85 47.11C170.91 47.03 170.94 46.78 170.94 46.36V42.48H169.83C169.03 42.48 168.41 42.29 167.97 41.89C167.53 41.5 167.31 40.95 167.31 40.25C167.31 39.75 167.41 39.33 167.59 38.99C167.78 38.65 168.1 38.32 168.54 38L172.39 35.15L172.42 35.12C173.24 34.54 174 34.25 174.7 34.25C175.44 34.25 175.98 34.46 176.31 34.9C176.64 35.33 176.81 36.08 176.81 37.14" fill="#615E5D"/>
<path d="M191.37 55.2303V58.8703C191.37 60.0903 191.46 61.0003 191.64 61.6003C191.82 62.2003 192.1 62.6003 192.48 62.8003C192.68 62.9003 192.98 63.0403 193.38 63.2203C194.72 63.8003 195.39 64.5803 195.39 65.5603C195.39 66.4003 195.12 67.0203 194.58 67.4203C194.04 67.8203 193.22 68.0203 192.12 68.0203H185.24C184.08 68.0203 183.23 67.8403 182.7 67.4803C182.17 67.1203 181.9 66.5403 181.9 65.7403C181.9 64.6403 182.55 63.8103 183.85 63.2503C184.21 63.0903 184.48 62.9603 184.66 62.8603C184.98 62.6603 185.21 62.3603 185.34 61.9703C185.47 61.5803 185.54 60.9303 185.54 60.0303V53.0603H184.73C183.91 53.0603 183.28 52.8903 182.85 52.5303C182.42 52.1803 182.2 51.6603 182.2 50.9803C182.2 50.5203 182.3 50.1203 182.49 49.7803C182.68 49.4403 183 49.1003 183.44 48.7603L186.96 46.0003C187.38 45.6603 187.77 45.4203 188.12 45.2803C188.47 45.1403 188.87 45.0703 189.31 45.0703C190.17 45.0703 190.77 45.4203 191.1 46.1203C191.43 46.8203 191.68 47.1703 191.84 47.1703C191.86 47.1703 192.26 46.8203 193.03 46.1203C193.8 45.4203 194.74 45.0703 195.84 45.0703C197.22 45.0703 198.32 45.5503 199.14 46.5103C199.96 47.4703 200.37 48.7503 200.37 50.3603C200.37 51.8003 200.03 52.9103 199.36 53.6903C198.69 54.4703 197.73 54.8603 196.49 54.8603C195.83 54.8603 195.3 54.6803 194.9 54.3203C194.5 53.9603 194.3 53.4803 194.3 52.8803L194.33 52.7003L194.36 52.5203C194.36 52.1003 194.26 51.7703 194.06 51.5303C193.86 51.2903 193.59 51.1703 193.25 51.1703C192.65 51.1703 192.19 51.5203 191.87 52.2203C191.55 52.9203 191.39 53.9203 191.39 55.2203" fill="#615E5D"/>
<path d="M222.82 52.0403V60.0903C222.82 60.8703 222.86 61.4203 222.94 61.7403C223.02 62.0603 223.14 62.3303 223.3 62.5503C223.44 62.7103 223.69 62.9003 224.05 63.1203C224.99 63.6803 225.46 64.4703 225.46 65.4903C225.46 66.2903 225.22 66.9103 224.75 67.3503C224.28 67.7903 223.61 68.0103 222.75 68.0103H219.6C218.54 68.0103 217.79 67.7403 217.36 67.2003C216.93 66.6603 216.72 65.6403 216.72 64.1403V57.8603H215.55C213.51 57.8603 211.88 58.1603 210.67 58.7503C209.46 59.3403 208.85 60.1203 208.85 61.0803C208.85 61.5603 209.06 61.9803 209.48 62.3303C209.9 62.6803 210.41 62.8603 211.01 62.8603C211.31 62.8603 211.71 62.7103 212.2 62.4203C212.69 62.1303 213.08 61.9903 213.36 61.9903C213.9 61.9903 214.35 62.2503 214.71 62.7703C215.07 63.2903 215.25 63.9503 215.25 64.7503C215.25 65.9703 214.75 66.9503 213.75 67.6803C212.75 68.4103 211.41 68.7803 209.72 68.7803C207.7 68.7803 205.99 68.0903 204.6 66.7103C203.21 65.3303 202.51 63.6203 202.51 61.5703C202.51 59.0503 203.64 57.0803 205.89 55.6803C208.14 54.2803 211.28 53.5803 215.31 53.5803H216.72V52.6503C216.72 51.8303 216.49 51.1803 216.03 50.7103C215.57 50.2403 214.92 50.0003 214.08 50.0003C213.24 50.0003 212.16 50.4903 210.72 51.4703C209.28 52.4503 208.11 52.9403 207.2 52.9403C206.36 52.9403 205.67 52.6903 205.13 52.1903C204.59 51.6903 204.32 51.0603 204.32 50.3003C204.32 48.8403 205.24 47.6003 207.08 46.5903C208.92 45.5803 211.28 45.0703 214.14 45.0703C217 45.0703 219.12 45.6703 220.6 46.8603C222.08 48.0503 222.82 49.7803 222.82 52.0403Z" fill="#615E5D"/>
<path d="M10.8202 33.8202C10.8202 33.8202 -2.78981 23.3202 4.18019 10.6402C4.60019 9.88017 5.05019 10.7102 5.14019 11.5502C5.40019 13.8802 7.21019 16.6602 8.77019 19.1002C10.3302 21.5302 13.4902 25.9202 14.1402 30.4202C14.5802 25.2702 12.3602 20.9502 9.21019 16.1602C6.05019 11.3702 4.82019 7.05018 8.70019 1.68018C4.31019 6.32018 0.350191 10.9702 0.0301908 17.4302C-0.239809 22.8402 3.84019 31.4002 10.8202 33.8302" fill="#059848"/>
<path d="M16.9004 21.85C16.9004 21.85 18.9304 18.51 18.5304 13.98C18.1304 9.44998 18.8204 3.99998 20.3104 2.72998C16.9404 6.53998 17.0404 8.89998 17.1204 11.55C17.1904 14.2 17.9904 18.66 16.9004 21.85Z" fill="#059848"/>
<path d="M27.7102 14.6702C27.7102 14.6702 27.8502 18.9902 26.0002 23.1602C24.1502 27.3302 22.0802 28.3502 20.3002 29.3602C18.5202 30.3802 17.0402 31.9002 16.8902 32.4402C16.7402 32.9802 17.2202 30.1502 21.4202 27.4702C25.6302 24.7802 27.7002 14.6602 27.7002 14.6602" fill="#059848"/>
<path d="M25.46 15.8599C25.46 15.8599 13.89 23.7699 15.01 30.6599C16.1 27.8299 16.64 26.3099 20.19 22.0999C23.75 17.8899 25.45 15.8599 25.45 15.8599" fill="#059848"/>
<path d="M20.94 0.0800781C20.94 0.0800781 15.06 4.38008 12.4 10.1501C9.72996 15.9201 13.27 21.2001 13.27 21.2001C13.27 21.2001 11.75 17.1201 13.16 12.7101C14.57 8.30008 20.94 0.0900726 20.94 0.0900726" fill="#059848"/>
<path d="M15.3704 13.6299C15.3704 13.6299 13.6104 20.1099 14.7704 24.8699C13.0804 20.8799 13.7604 17.0099 15.3704 13.6299Z" fill="#615E5D"/>
<path d="M21.38 24.3003C21.38 24.3003 15.28 27.6203 15.72 33.4403H16.02C16.02 33.4403 16.24 29.0603 21.38 24.3003Z" fill="#615E5D"/>
<path d="M5.20996 21.3801C5.20996 21.3801 7.81996 27.5201 13.32 32.6901C19.34 38.3601 18.6 44.1401 17.62 48.4201C17.24 43.2501 17.41 40.8001 14.93 37.2101C12.45 33.6201 5.53996 28.5601 5.20996 21.3701" fill="#615E5D"/>
<path d="M225.46 72.6099H129.95V83.7299H225.46V72.6099Z" fill="#059848"/>
</svg>
